<?xml version="1.0" encoding="UTF-8"?>
<svg id="Layer_2" data-name="Layer 2" xmlns="http://www.w3.org/2000/svg" viewBox="0 0 1857.13 1047.3">
  <defs>
    <style>
      .cls-1 {
        fill: #fff;
      }
    </style>
  </defs>
  <g id="Layer_1-2" data-name="Layer 1">
    <g>
      <path class="cls-1" d="m1599.08,657.06c-.05.52-.02,1.06-.16,1.56-.37,1.31-.55,3.12-2.38,2.84-1.72-.26-1.58-2.04-1.69-3.41-.1-1.2-.14-2.4-.2-3.47-1.78-1.26-3.12,2.53-4.62.14-.88-1.41-.71-3.07.07-4.5.89-1.63,2.3-1.17,3.65-.61,2.4,2.04,6.14,3.12,5.33,7.45Z"/>
      <path class="cls-1" d="m316.54,847.58c.6,1.35,2.51,2.65,1.04,4.18-1.44,1.5-3.68,2.3-5.66,2.33-1.67.03-1.85-1.91-1.37-3.33.97-2.87,3.41-3.22,5.99-3.18,0,0,0,0,0,0Z"/>
      <path class="cls-1" d="m320.8,857.15c-.75-4.26-.01-5,4.25-4.25h0c.24,3.07-1.18,4.49-4.25,4.25,0,0,0,0,0,0Z"/>
      <path class="cls-1" d="m1829.5,653.23c3.49-.4,6.75-1.39,9.63-3.52.85-.63,1.93-1.3,2.81-.27,1.1,1.29-.02,2.16-.89,3.07-2.94,3.13-7.15,3.47-10.81,5.02-.15.06-.36.07-.52.04-1.84-.43-4.44-.42-4.38-2.86.07-2.68,2.51-1.59,4.16-1.48Z"/>
      <path class="cls-1" d="m1811.93,626.2c.25,1.19.72,2.39.71,3.58-.01,1.73-.95,3.05-2.8,3.2-1.4.12-2.22-.94-2.7-2.11-.67-1.63-.41-3.11,1.21-4.09,1.1-.66,2.36-.54,3.58-.59h0Z"/>
      <path class="cls-1" d="m1790.64,422.91c0,2.48,0,4.95-.02,7.43-.02,1.45-.32,2.82-1.41,3.89-.79.77-1.75,1.39-2.82.73-.86-.53-.78-1.52-.51-2.39.87-2.87,1.76-5.73,2.65-8.6.71-.35,1.41-.7,2.12-1.06Z"/>
      <path class="cls-1" d="m1848.12,499.53c-.35.36-.71.71-1.06,1.07-1.41-.03-2.86.08-4.12-.76-1.07-.72-2.03-1.58-1.58-3.04.38-1.24,1.27-2.19,2.48-2.61,1.31-.46,1.84.7,2.44,1.55.82,1.16,1.65,2.32,1.85,3.78Z"/>
      <path class="cls-1" d="m1786.83,442.89c-1.24-.08-2.18-.54-2.16-1.8.03-1.87,1.45-2.11,2.9-2.12,1.05-.01,2.36.16,2.4,1.38.07,2.04-1.71,2.24-3.14,2.55Z"/>
      <path class="cls-1" d="m1815.14,548.51c2.07-1.11,4.41-1.1,6.64-1.53,1.18-.23,2.08.34,2.49,1.45.4,1.08.23,2.24-.84,2.75-1.68.81-2.6,2.04-3.4,3.73-.99,2.08-2.61,1.85-3.85-.26-1.13-1.92-1.03-4.04-1.03-6.15h0Z"/>
      <path class="cls-1" d="m1839.2,603.06c-.15.99-.76,1.32-1.49,1.14-1.73-.43-3.36-1.22-3.67-3.14-.16-1.01.92-1.39,1.83-1.23,1.85.34,3.1,1.36,3.34,3.23Z"/>
      <path class="cls-1" d="m525.16,793.3c.35-.36.7-.71,1.05-1.07.73-.45,1.44-.98,2.21-1.35,1.66-.81,2.61-.14,2.99,1.58.61,2.75-.18,4.35-3.07,6.15-3.24-.47-4.76-1.96-3.18-5.31Z"/>
      <path class="cls-1" d="m1524.88,454.13c-1.35-.39-3.21-.87-5.04-1.47-.99-.33-2.06-.78-1.85-2.14.15-1,1.06-1.33,1.87-1.63,3.36-1.23,6.77-.28,7.78,2.14.93,2.24.12,3.39-2.76,3.1Z"/>
      <path class="cls-1" d="m1655.47,481.44c-.35,0-.71,0-1.06,0-.32.39-.75.67-1.07,1.06,0,0,0,0,0,0-1.37.18-2.74.47-4.12.49-1.35.02-2.29-.84-2.62-2.13-.37-1.42.54-2.31,1.65-2.93,1.78-.99,3.69-.98,5.53-.25,1.66.66,2.43,1.91,1.7,3.75Z"/>
      <path class="cls-1" d="m1681.02,530.35c-1.29-.13-2.77-.22-2.65-1.87.15-2,1.52-3.15,3.55-2.97,1.5.13,2.76,1.13,2.63,2.72-.17,2.1-2.03,2.01-3.53,2.13Z"/>
      <path class="cls-1" d="m1649.34,503.78c1.54.21,3.4-.12,3.42,1.8.03,2.29-2.02,2.58-3.74,2.67-1.6.08-2.67-.99-2.61-2.58.08-1.99,1.87-1.59,2.92-1.89Z"/>
      <path class="cls-1" d="m1653.35,465.5h2.11c.35.35.71.71,1.08,1.05,0,0,0,0,0,0-.04,1.6-.38,3.08-1.7,4.15-1.01.82-2.15,1.25-3.29.39-1.28-.95-.88-2.07-.06-3.13.63-.82,1.24-1.65,1.86-2.47Z"/>
      <path class="cls-1" d="m1550.12,378.21c.84-.9,1.05-2.01,1.06-3.18,1.07-.6,2.08-1.38,3.23-1.74,1.25-.39,2.52.07,3.22,1.24.73,1.22-.31,1.89-1.1,2.59-2.58,2.29-4.62,4.7-3.91,8.62.51,2.81-1.81,3.02-3.81,3.04-1.52.02-3.42.57-4.33-1.1-.99-1.81.75-2.84,1.75-3.98,1.49-1.7,3.52-3,3.89-5.49Z"/>
      <path class="cls-1" d="m1583.1,371.82c1.59.11,3.75.27,3.69,2.08-.1,2.88.63,4.93,2.9,6.69.98.76.96,2.25.26,3.38-1.28,2.08-3.1.72-4.71.61-1.42-2.12-2.85-4.25-4.27-6.37-.62-.1-.98-.45-1.07-1.07-.24-2.56,1.56-3.89,3.2-5.32Z"/>
      <path class="cls-1" d="m1653.35,410.14c.15.09.3.2.46.27,1.78.79,2.47-2.73,4.05-1.28,1.71,1.56.26,3.63-.06,5.47-.09.52-.18,1.05-.35,1.55-.57,1.64-.83,3.78-2.98,3.92-2.16.14-2.82-1.74-3.26-3.53-.33-.24-.56-.56-.68-.95-.05-.63.21-1.16.52-1.68l.18-.57q-1.85-2.86,2.12-3.19h0Z"/>
      <path class="cls-1" d="m1530.95,371.82c1.07-1.41,2.14-2.82,3.21-4.23,1.65.31,3.45.98,3.49,2.72.05,2.44-1.21,4.7-2.47,6.78-.48.78-1.58.63-2.38.06-1.87-1.34-3.18-2.88-1.85-5.33Z"/>
      <path class="cls-1" d="m1609.7,383.53c-.21,1.66.7,3.99-1.42,4.66-2.23.7-3.37-1.48-4.48-3.01-.81-1.12-1.78-2.51-.75-3.87,1.09-1.44,2.54-.72,3.8,0,.61.35,1.19.76,1.79,1.14h0c.34.37.7.72,1.07,1.07h0Z"/>
      <path class="cls-1" d="m1423.52,449.83c.05-1.25.03-2.83,1.59-2.92,2.12-.12,2.44,1.67,2.51,3.34.05,1.25,0,2.84-1.57,2.92-2.12.12-2.38-1.69-2.54-3.34Z"/>
      <path class="cls-1" d="m1453.45,429.91c-.99-.17-1.7-.66-1.68-1.68.03-1.41.87-2.37,2.26-2.36,1.07,0,1.27,1.08,1.22,1.97-.06,1.11-.43,2.08-1.8,2.08Z"/>
      <path class="cls-1" d="m1480.93,301.57c-.07-.51-.4-1.23-.18-1.51,2.51-3.14,5.79.06,8.73-.95,1.49-.52,2.62,1.43,2.94,3.09.28,1.44.14,2.88-1.11,3.83-1.45,1.11-2.97.77-4.38-.21-2.01-1.41-4-2.83-6-4.25h0Z"/>
      <path class="cls-1" d="m1565,323.92c-.17,3.15-1.9,5.63-3.57,8.1-.6.88-1.67,1.39-2.79.74-.86-.5-1.04-1.43-.93-2.31.23-1.75.6-3.47.89-5.21.75-4.44,1.06-4.58,5.35-2.37.35.35.7.71,1.06,1.06Z"/>
      <path class="cls-1" d="m1748.07,421.85c.36.71.71,1.42,1.07,2.12-.16.49-.24,1.03-.51,1.46-.71,1.13-1.69,1.9-2.94.83-.91-.78-.7-1.88-.18-2.85.54-1,1.53-1.33,2.56-1.56Z"/>
      <path class="cls-1" d="m1374.48,539.99c0-.35.01-.7.02-1.06,1.42.16,2.48.88,3.19,2.12,2.78,5.4,2.05,7.12-3.36,7.99-.89.02-1.76-.28-2.64-.23-2.39.12-3.8-1.05-3.96-3.3-.14-2.07,1.23-3.18,3.24-3.5.88-.14,1.72-.43,2.45-.95h0c.37-.34.68-.73,1.05-1.06Z"/>
      <path class="cls-1" d="m1370.23,499.53c-1.66-.36-2.94-1.05-2.57-3.08.47-2.63,1.7-4.46,4.7-4.36.04,2.69.33,5.46-2.13,7.44Z"/>
      <path class="cls-1" d="m1218.04,550.63c1.88-4.81,6.98-5.5,10.62-7.99,1.68-1.15,2.77.62,2.15,2.65-1.25.24-2.48.73-2.94,1.93-2.11,5.4-7.44,4.61-11.46,6.65-.67-2.14,1.15-2.27,1.63-3.24Z"/>
      <path class="cls-1" d="m563.7,795.48c.09.84-.43,1.44-1.1,1.58-2.4.52-4.68,1.37-6.93,2.33-.63.27-1.48.09-1.86-.58-.42-.72.03-1.38.64-1.76,1.78-1.11,3.53-2.3,5.41-3.18,1.59-.74,3.7.3,3.84,1.61Z"/>
      <path class="cls-1" d="m1318.79,478.27c1.32.17,3.1.01,2.98,2-.13,2.02-1.68,2.99-3.6,3.04-1.83.05-3.06-.93-2.92-2.85.15-2.16,1.94-2.09,3.55-2.19Z"/>
      <path class="cls-1" d="m1170.83,530.84c.04,1.53-1.85,3.3-3.53,3.24-1.95-.06-2.73-1.51-2.91-3.11-.24-2.15,1.41-2.56,3.07-2.58,1.69-.03,3.08.54,3.37,2.45Z"/>
      <path class="cls-1" d="m1029.65,617.69c2.13,0,4.26-.01,6.38-.02.78,3.17-1.97,4.08-3.73,4.24-2.3.2-2.52-2.29-2.65-4.22Z"/>
      <path class="cls-1" d="m198.89,289.48c-.05.52-.02,1.06-.16,1.56-.37,1.31-.55,3.12-2.38,2.84-1.72-.26-1.58-2.04-1.69-3.41-.1-1.2-.14-2.4-.2-3.47-1.78-1.26-3.12,2.53-4.62.14-.88-1.41-.71-3.07.07-4.5.89-1.63,2.3-1.17,3.65-.61,2.4,2.04,6.14,3.12,5.33,7.45Z"/>
      <path class="cls-1" d="m429.32,285.65c3.49-.4,6.75-1.39,9.63-3.52.85-.63,1.93-1.3,2.81-.27,1.1,1.29-.02,2.16-.89,3.07-2.94,3.13-7.15,3.47-10.81,5.02-.15.06-.36.07-.52.04-1.84-.43-4.44-.42-4.38-2.86.07-2.68,2.51-1.59,4.16-1.48Z"/>
      <path class="cls-1" d="m411.75,258.61c.25,1.19.72,2.39.71,3.58-.01,1.73-.95,3.05-2.8,3.2-1.4.12-2.22-.94-2.7-2.11-.67-1.63-.41-3.11,1.21-4.09,1.1-.66,2.36-.54,3.58-.59h0Z"/>
      <path class="cls-1" d="m390.45,55.33c0,2.48,0,4.95-.02,7.43-.02,1.45-.32,2.82-1.41,3.89-.79.77-1.75,1.39-2.82.73-.86-.53-.78-1.52-.51-2.39.87-2.87,1.76-5.73,2.65-8.6.71-.35,1.41-.7,2.12-1.06Z"/>
      <path class="cls-1" d="m447.94,131.95c-.35.36-.71.71-1.06,1.07-1.41-.03-2.86.08-4.12-.76-1.07-.72-2.03-1.58-1.58-3.04.38-1.24,1.27-2.19,2.48-2.61,1.31-.46,1.84.7,2.44,1.55.82,1.16,1.65,2.32,1.85,3.78Z"/>
      <path class="cls-1" d="m386.65,75.3c-1.24-.08-2.18-.54-2.16-1.8.03-1.87,1.45-2.11,2.9-2.12,1.05-.01,2.36.16,2.4,1.38.07,2.04-1.71,2.24-3.14,2.55Z"/>
      <path class="cls-1" d="m414.96,180.92c2.07-1.11,4.41-1.1,6.64-1.53,1.18-.23,2.08.34,2.49,1.45.4,1.08.23,2.24-.84,2.75-1.68.81-2.6,2.04-3.4,3.73-.99,2.08-2.61,1.85-3.85-.26-1.13-1.92-1.03-4.04-1.03-6.15h0Z"/>
      <path class="cls-1" d="m439.02,235.47c-.15.99-.76,1.32-1.49,1.14-1.73-.43-3.36-1.22-3.67-3.14-.16-1.01.92-1.39,1.83-1.23,1.85.34,3.1,1.36,3.34,3.23Z"/>
      <path class="cls-1" d="m124.7,86.54c-1.35-.39-3.21-.87-5.04-1.47-.99-.33-2.06-.78-1.85-2.14.15-1,1.06-1.33,1.87-1.63,3.36-1.23,6.77-.28,7.78,2.14.93,2.24.12,3.39-2.76,3.1Z"/>
      <path class="cls-1" d="m255.29,113.85c-.35,0-.71,0-1.06,0-.32.39-.75.67-1.07,1.06,0,0,0,0,0,0-1.37.18-2.74.47-4.12.49-1.35.02-2.29-.84-2.62-2.13-.37-1.42.54-2.31,1.65-2.93,1.78-.99,3.69-.98,5.53-.25,1.66.66,2.43,1.91,1.7,3.75Z"/>
      <path class="cls-1" d="m280.84,162.76c-1.29-.13-2.77-.22-2.65-1.87.15-2,1.52-3.15,3.55-2.97,1.5.13,2.76,1.13,2.63,2.72-.17,2.1-2.03,2.01-3.53,2.13Z"/>
      <path class="cls-1" d="m249.16,136.2c1.54.21,3.4-.12,3.42,1.8.03,2.29-2.02,2.58-3.74,2.67-1.6.08-2.67-.99-2.61-2.58.08-1.99,1.87-1.59,2.92-1.89Z"/>
      <path class="cls-1" d="m253.17,97.91h2.11c.35.35.71.71,1.08,1.05,0,0,0,0,0,0-.04,1.6-.38,3.08-1.7,4.15-1.01.82-2.15,1.25-3.29.39-1.28-.95-.88-2.07-.06-3.13.63-.82,1.24-1.65,1.86-2.47Z"/>
      <path class="cls-1" d="m149.94,10.62c.84-.9,1.05-2.01,1.06-3.18,1.07-.6,2.08-1.38,3.23-1.74,1.25-.39,2.52.07,3.22,1.24.73,1.22-.31,1.89-1.1,2.59-2.58,2.29-4.62,4.7-3.91,8.62.51,2.81-1.81,3.02-3.81,3.04-1.52.02-3.42.57-4.33-1.1-.99-1.81.75-2.84,1.75-3.98,1.49-1.7,3.52-3,3.89-5.49Z"/>
      <path class="cls-1" d="m182.92,4.23c1.59.11,3.75.27,3.69,2.08-.1,2.88.63,4.93,2.9,6.69.98.76.96,2.25.26,3.38-1.28,2.08-3.1.72-4.71.61-1.42-2.12-2.85-4.25-4.27-6.37-.62-.1-.98-.45-1.07-1.07-.24-2.56,1.56-3.89,3.2-5.32Z"/>
      <path class="cls-1" d="m253.17,42.55c.15.09.3.2.46.27,1.78.79,2.47-2.73,4.05-1.28,1.71,1.56.26,3.63-.06,5.47-.09.52-.18,1.05-.35,1.55-.57,1.64-.83,3.78-2.98,3.92-2.16.14-2.82-1.74-3.26-3.53-.33-.24-.56-.56-.68-.95-.05-.63.21-1.16.52-1.68l.18-.57q-1.85-2.86,2.12-3.19h0Z"/>
      <path class="cls-1" d="m130.76,4.23c1.07-1.41,2.14-2.82,3.21-4.23,1.65.31,3.45.98,3.49,2.72.05,2.44-1.21,4.7-2.47,6.78-.48.78-1.58.63-2.38.06-1.87-1.34-3.18-2.88-1.85-5.33Z"/>
      <path class="cls-1" d="m209.52,15.94c-.21,1.66.7,3.99-1.42,4.66-2.23.7-3.37-1.48-4.48-3.01-.81-1.12-1.78-2.51-.75-3.87,1.09-1.44,2.54-.72,3.8,0,.61.35,1.19.76,1.79,1.14h0c.34.37.7.72,1.07,1.07h0Z"/>
      <path class="cls-1" d="m23.33,82.24c.05-1.25.03-2.83,1.59-2.92,2.12-.12,2.44,1.67,2.51,3.34.05,1.25,0,2.84-1.57,2.92-2.12.12-2.38-1.69-2.54-3.34Z"/>
      <path class="cls-1" d="m53.27,62.32c-.99-.17-1.7-.66-1.68-1.68.03-1.41.87-2.37,2.26-2.36,1.07,0,1.27,1.08,1.22,1.97-.06,1.11-.43,2.08-1.8,2.08Z"/>
      <path class="cls-1" d="m347.89,54.26c.36.71.71,1.42,1.07,2.12-.16.49-.24,1.03-.51,1.46-.71,1.13-1.69,1.9-2.94.83-.91-.78-.7-1.88-.18-2.85.54-1,1.53-1.33,2.56-1.56Z"/>
      <path class="cls-1" d="m1174.88,77.32c-1.42,3.92-1.99,3.92-5.32,0h5.32Z"/>
      <path class="cls-1" d="m218.03,408.33c-1.75-.49-4.09,2.02-5.32-1.06.5-.67,1.47-1.4,1.05-2.18-2.6-4.86.36-6.37,4.27-7.39,1.51,1.01,1.61,2.72,2.11,4.22,0,.72,0,1.44.01,2.16v1.06c-.21.23-.39.47-.53.76-.12.35-.26.67-.41,1.01-.24.62-.62,1.11-1.19,1.42Z"/>
      <path class="cls-1" d="m255.29,422.17c-3.25-.02-3.77,2.5-4.57,4.83-.3.88-1.06,1.51-2.02,1.19-1.25-.42-.62-1.35-.33-2.12.73-1.96.51-4.16,1.6-6.02,2.25-.48,4.72-1.5,5.32,2.13Z"/>
      <path class="cls-1" d="m319.14,405.14c1.78-.25,4.62.84,5.03-1.27.54-2.82-2.88-1.32-4.17-2.43-.26-.22-.57-.38-.86-.56,1.74.1,3.49.06,5.2.34,1.23.2,2.39.97,2.3,2.43-.09,1.42-1.29,2.02-2.51,2.3-1.75.4-3.47.38-4.98-.81Z"/>
      <path class="cls-1" d="m314.88,404.07c1.91-1.58,3.15-.55,4.26,1.07-1.42-.36-2.84-.71-4.26-1.07Z"/>
      <path class="cls-1" d="m262.73,431.74c.35-.35.71-.71,1.06-1.06,0,0,.02.02.02.02.24.94-.11,1.3-1.06,1.06l-.02-.03Z"/>
      <path class="cls-1" d="m259.54,429.62c.35-.36.71-.71,1.06-1.07-.35.36-.71.71-1.06,1.07Z"/>
      <path class="cls-1" d="m260.61,428.56c.35-.36.71-.71,1.06-1.07-.35.36-.71.71-1.06,1.07Z"/>
      <path class="cls-1" d="m246.77,417.91v-1.06c.35,0,.71,0,1.06,0,0,.35,0,.71,0,1.06-.35.42-.71.42-1.06,0Z"/>
      <path class="cls-1" d="m326.59,416.86c-.35-.36-.7-.72-1.04-1.08.35.36.7.72,1.04,1.08Z"/>
      <path class="cls-1" d="m314.88,412.59c.35-.37.71-.73,1.06-1.1-.35.37-.71.73-1.06,1.1Z"/>
      <path class="cls-1" d="m296.78,410.47c-.36-.35-.73-.71-1.09-1.06.36.35.73.71,1.09,1.06Z"/>
      <path class="cls-1" d="m292.57,409.41c-.36.35-.73.71-1.09,1.06.36-.35.73-.71,1.09-1.06Z"/>
      <path class="cls-1" d="m245.72,409.41c-.36.36-.71.71-1.07,1.07,0-.36,0-.72,0-1.08.36,0,.72,0,1.08.01Z"/>
      <path class="cls-1" d="m315.95,408.33c0-.36,0-.71,0-1.07.08.24.18.48.21.73.01.1-.14.22-.21.33Z"/>
      <path class="cls-1" d="m315.94,406.24c-.34-.37-.69-.73-1.03-1.1.34.37.69.73,1.03,1.1Z"/>
      <path class="cls-1" d="m304.25,103.88c.02-1.23-.02-2.46.06-3.68.1-1.45.47-2.9,2.13-3.24,2.08-.43,2.73,1.05,3.12,2.71-.67.55-.38,1.57-1.05,2.13-.02.34-.03.69-.03,1.03-1.08,1.7-2.45,2.22-4.24,1.05Z"/>
      <path class="cls-1" d="m289.33,98.61c1.68,1.64,1.42,3.02-.73,3.8-1.08.39-2.33.29-3.5.41-.47-3.38-.32-3.54,4.23-4.21Z"/>
      <path class="cls-1" d="m228.68,431.75h1.06c-.03,3.39,1.86,4.41,5,4.56,1.61.08,4.01.05,4.63,1.87.69,2.01-1.6,2.82-2.84,3.97-.52.48-1.47.86-1.54,1.38-.66,5.13-3.87,4.05-7.16,3.13-1.16-.32-2.47-.48-3.64-.28-7.28,1.25-7.27,1.29-10.53-5.3-1.63,3.83-5.05,5.33-7.86,7.55-1.51,1.19-3.22,1.63-4.79.13-1.28-1.23-.7-2.61.11-3.85,1.47-2.27,1.31-6.61,6.46-3.26,2.36,1.53,4.23-1.45,3-4.56.72-.71.72-1.42,0-2.13-2.37-1.39-3.1-3.88-4.14-6.16.02-.82.4-1.5.82-2.17.35-.4.78-.69,1.26-.9.5-.11,1.01-.1,1.51,0,2.26,2.08,5.66.95,8,2.84h3.19c.57.58.85,1.26.78,2.08-.17.89-.65,1.64-1.18,2.56,2.46-1.48,5.44.41,7.84-1.44Z"/>
      <path class="cls-1" d="m362.75,450.9c.85.97,1.93,1.78,2.19,3.16-.45.53-.83,1.16-1.38,1.56-1.13.82-2.43,1.73-3.8.69-1.45-1.1-1.4-2.77-.86-4.31.72-2.07,2.26-1.8,3.85-1.1Z"/>
      <path class="cls-1" d="m351.08,457.29c-1.41,1.07-2.82,2.13-4.24,3.2-.35.37-.74.69-1.09,1.06h0c-.35.36-.74.68-1.07,1.07,0,0,0,0,0,0-2.99.61-1.2-1.18-1.07-2.13,1.3-1.66,2.64-3.3,3.9-4.98.51-.68.72-1.81,1.8-1.65,1.24.18,1.51,1.3,1.66,2.39.05.35.06.7.09,1.05Z"/>
      <path class="cls-1" d="m376.64,464.73c.69,0,1.39-.01,2.08-.02,1.1,2.36-.7,2.59-2.18,2.69-1.55.11-2.8-1.01-4.18-1.6-.03-1.52-1.62-3.42,1.07-4.26.35.35.71.71,1.06,1.06.55.88,1.25,1.6,2.15,2.12Z"/>
      <path class="cls-1" d="m340.44,460.48c.26,3.55-1.95,1.43-3.06,1.2-1.09-.22-2.65-.48-2.4-2.21.11-.8,1.02-1.04,1.67-.79,1.3.5,2.53,1.19,3.78,1.8h0Z"/>
      <path class="cls-1" d="m338.72,445.63c2.37,1.95,3.72,3.08,3.25,5.12-.12.51-.79.86-1.25.62-2.04-1.07-1.99-2.9-2-5.74Z"/>
      <path class="cls-1" d="m353.21,458.35c.46-1.81.76-3.66.58-5.92,3.34,2.98,3.22,3.6-.58,5.92,0,0,0,0,0,0Z"/>
      <path class="cls-1" d="m334.32,455.83c-.74-.08-1.38-.42-1.38-1.21,0-.79.65-1.17,1.39-1.18.77-.01,1.35.4,1.35,1.19,0,.79-.59,1.16-1.36,1.2Z"/>
      <path class="cls-1" d="m341.9,455.66c.36-.34.67-.71,1.05-.98.53-.38,1.05-1.07,1.77-.72.57.28.36.89,0,1.29-.61.66-1.4.92-2.29.77-.15-.02-.27-.18-.52-.36Z"/>
      <path class="cls-1" d="m351.97,473.02c-1.02-.23-.83-1-.81-1.64.01-.51.19-1.17.76-1.12,1.1.1,1.2,1.13,1.22,1.93,0,.27-.78.56-1.17.82Z"/>
      <path class="cls-1" d="m367.04,462.61l-1.06-1.06c.72-.78,1.42-2.45,2.58-.9.75,1-.56,1.63-1.52,1.96Z"/>
      <path class="cls-1" d="m353.21,464.75c.85.27,1.76.48,1.68,1.66,0,.13-.25.36-.35.34-1.16-.18-1.11-1.19-1.33-2.01,0,0,0,0,0,0Z"/>
      <path class="cls-1" d="m352.14,436c.71-.35,1.42-.71,2.13-1.06-.71.35-1.42.71-2.13,1.06Z"/>
      <path class="cls-1" d="m359.59,440.26c.35.35.71.71,1.06,1.06-.35-.35-.71-.71-1.06-1.06Z"/>
      <path class="cls-1" d="m351.08,437.07c.35-.35.71-.71,1.06-1.06-.35.35-.71.71-1.06,1.06Z"/>
      <path class="cls-1" d="m355.33,434.94c.36.35.71.7,1.07,1.06-.36-.35-.71-.7-1.07-1.06Z"/>
      <path class="cls-1" d="m43.85,272.19c-.31,1.51-1.43,1.89-2.73,1.8-1.33-.09-2.53-.72-2.21-2.25.3-1.4,1.61-1.73,2.92-1.54,1.1.16,1.98.67,2.02,1.99Z"/>
      <path class="cls-1" d="m954.58,284.92c1.05-.37,2.1-.73,3.14-1.1.91,1.76,1.21,3.64,1.08,5.59-.09,1.35.21,3.09-1.62,3.42-1.82.32-2.24-1.26-2.63-2.64-.32-.24-.43-.47-.32-.71.11-.24.21-.36.32-.36,0-.36,0-.71,0-1.07-.63-.71-.63-1.42,0-2.13.01-.34.02-.68.02-1.02Z"/>
      <path class="cls-1" d="m1205.73,95.4c-.94.88-1.79,1.92-3.18,2.14-.4-.34-.86-.62-1.17-1.02-.94-1.24-1.29-2.68.12-3.66,1.42-.98,2.62-.13,3.47,1.17.28.43.51.91.76,1.36Z"/>
      <path class="cls-1" d="m1081.76,209.6c.07.79-.29,1.3-1.07,1.35-.53.03-.96-.34-1.04-.88-.13-.78.27-1.3,1.05-1.35.53-.03.9.35,1.06.88Z"/>
      <path class="cls-1" d="m146.28,232.26c-.05,1.2-.63,2.03-1.89,2.01-1.08-.02-2.14-.43-2.2-1.73-.05-1.04.77-1.49,1.67-1.66,1.16-.22,2.06.11,2.41,1.39Z"/>
      <path class="cls-1" d="m121.68,232.48c.98.29,1.3,1.06,1.26,1.97-.04.94-.57,1.79-1.54,1.66-1.38-.19-1.23-1.44-1.12-2.45.09-.72.57-1.2,1.39-1.18Z"/>
      <path class="cls-1" d="m120.13,199.73c.7,0,1.4,0,2.1,0,.34.37.7.72,1.07,1.07,0,0,0,0,0,0,0,2.21-.74,3.86-3.18,4.24,0,0,0,0,0,0,0-1.77,0-3.54,0-5.3Z"/>
      <path class="cls-1" d="m46.85,203.84c.17.05-.08-.59-.07-1.31.01-2.52,1.44-4.61,2.23-6.89.31-.9,1.36-1.05,2.26-.7.94.36,1.52,1.3,1.08,2.08-1.21,2.12-2.39,4.23-3.21,6.53-.17.49-.73.73-2.29.29Z"/>
      <path class="cls-1" d="m57.21,193.93c1.96.58,2.21,1.93,2.09,3.4-.12,1.45-.99,2.27-2.45,2.1-1.64-.19-2.56-1.21-2.28-2.89.26-1.53,1.34-2.36,2.65-2.61Z"/>
      <path class="cls-1" d="m182.95,174.14c0-.69,0-1.38,0-2.07.68-.38,1.35-.75,2.03-1.13.24.05.48.09.73.14,2.77,2.16,5.71,2.74,8.91.97.84,3.51.71,3.96-2.02,4.18-2.9.24-5.87.43-8.6-1.03-.65-.06-1-.41-1.05-1.06Z"/>
      <path class="cls-1" d="m50.6,221.63c1.03.26,1.25,1.1,1.13,1.96-.15,1.02-.54,2.15-1.9,1.76-.95-.27-.96-1.28-.85-2.14.12-.92.54-1.58,1.62-1.57Z"/>
      <path class="cls-1" d="m22.69,210.45c.94.09,1.91.27,1.86,1.35-.04.99-.93,1.4-1.85,1.4-.92,0-1.8-.45-1.82-1.43-.02-1.08.98-1.23,1.8-1.32Z"/>
      <path class="cls-1" d="m82.75,219.92c-.76.96-1.71,1.05-2.71.4-.63-.4-.93-1.1-.43-1.75.62-.8,1.54-.69,2.36-.33.67.3,1.14.8.78,1.67Z"/>
      <path class="cls-1" d="m183.99,167.79c.35-1.06.7-2.13,1.05-3.19,3.41,2.56,3.42,3.73.04,6.41,0,0-.1-.07-.1-.07-.33-1.05-.67-2.1-1-3.15Z"/>
      <path class="cls-1" d="m491.61,86.92c3.99-1.23,4.49-.86,4.22,3.19-1,1.62-2.65,2.2-4.02,1.13-1.32-1.03-1.07-2.83-.2-4.32Z"/>
      <path class="cls-1" d="m194.6,131.58c-1.27-.68-1.97-1.75-2.17-3.17.21-1.83-3.31-2.7-1.78-4.31,2.08-2.18,3.57.66,5.22,1.61.3.17.58.38.87.57.79,1.42.79,2.84,0,4.26h0c-.56.65-1.57.41-2.14,1.06v-.02Z"/>
      <path class="cls-1" d="m233.98,132.65q-4.46-.32-5.29-4.22c1.86-.12,3.64.15,5.3,1.04.74,1.07.76,2.13-.02,3.19v-.02Z"/>
      <path class="cls-1" d="m227.49,423.73c-.04.69-.09,1.62-.91,1.57-1.32-.08-1.35-1.35-1.49-2.33-.11-.76.32-1.45,1.16-1.27,1,.2,1.17,1.13,1.24,2.03Z"/>
      <path class="cls-1" d="m220.16,415.78c.85.9,1.05,2.02,1.06,3.19-1.06-.35-2.13-.71-3.19-1.06,0-.71,0-1.42,0-2.13.71,0,1.42,0,2.13,0Z"/>
      <path class="cls-1" d="m218.03,424.3c-.71,0-1.42,0-2.13,0,.36-1.06.71-2.12,1.07-3.19,2.04.5,1.68,1.81,1.06,3.19Z"/>
      <path class="cls-1" d="m234,418.97c-.71,0-1.41,0-2.12-.01.71-.71,1.42-.71,2.12.01Z"/>
      <path class="cls-1" d="m224.41,430.67c.71-.35,1.42-.7,2.13-1.05,0,.35,0,.7,0,1.06-.71,0-1.42,0-2.14,0Z"/>
      <path class="cls-1" d="m255.28,424.3h-1.06c.35-.36.7-.71,1.06-1.07,0,0,.04.03.04.03.25.24.32.47.23.7-.09.22-.18.34-.27.34Z"/>
      <path class="cls-1" d="m246.77,417.91v1.06c-.35-.35-.71-.71-1.06-1.06h1.06Z"/>
      <path class="cls-1" d="m244.64,416.85c.35.35.71.71,1.06,1.06-.35-.35-.71-.71-1.06-1.06Z"/>
      <path class="cls-1" d="m421.79,79.7c-.08.59-.43.98-1.01.98-.58,0-.98-.39-.99-.97,0-.6.41-.96.99-.96.58,0,.94.36,1.01.95Z"/>
      <path class="cls-1" d="m343.6,428.56c-1.51-.84-2.05.9-3.49,1.33-1.16-2.5-2.03-5.04-1.68-7.86.21-1.72.66-3.38-.2-5.1-.52-1.04-.11-2.18,1.08-2.52,1.18-.34,2.09.56,2.44,1.53.62,1.72-.08,3.91,1.88,5.15-.63,1.6-1.38,3.14.21,4.74.8.8.67,1.9-.24,2.74Z"/>
      <path class="cls-1" d="m443.67,458.35c1.96-1.95-1.77-6.18,1.72-6.53,2.15-.22.02,4.39,2.09,6.13.33.28.32.97.47,1.47,0,0-.02.01-.02.01-1.76,1.05-3.04.15-4.24-1.06l-.02-.02Z"/>
      <path class="cls-1" d="m467.09,454.1c-1.16-.26-1.87-.97-2.13-2.13,1.8-.21,2.99-1.41,4.21-2.57,1.27-1.22,2.35-1.07,3.25.44-1.37.76-2.43,1.82-3.19,3.19-.49.79-1.25,1.05-2.13,1.06Z"/>
      <path class="cls-1" d="m446.86,445.59c.02,1.53.45,2.78,2.13,3.21-.87.61-1.83,1.08-2.6-.01-.81-1.14-.29-2.22.47-3.19Z"/>
      <path class="cls-1" d="m450.07,451.97c-.35.71-.71,1.43-1.06,2.14.35-.71.71-1.43,1.06-2.14Z"/>
      <path class="cls-1" d="m449.01,454.1c0,.71,0,1.41,0,2.12-.75-.7-.75-1.41,0-2.12Z"/>
      <path class="cls-1" d="m449,456.21c.36.36.72.72,1.07,1.08-.36-.36-.72-.72-1.07-1.08Z"/>
      <path class="cls-1" d="m378.49,118.3c-.13.29-.25,1.1-.72,1.52-1.84,1.64-3.77,3.14-4.93,5.43-.45.88-1.57.83-2.36.33-1.35-.84-2.73-1.78-2.79-3.59-.04-1.04.81-1.72,1.67-1.77,2.71-.16,4.59-1.52,6.17-3.57.43-.56,1.19-.75,1.93-.44.73.31,1.01.93,1.03,2.09Z"/>
      <path class="cls-1" d="m435.19,154c.48-.21.94-.46,1.43-.61,1.14-.35,2.2-.16,2.38,1.16.16,1.17-.61,2-1.83,2.03-.66.01-1.32-.35-1.98-.54,0-.68,0-1.36,0-2.04Z"/>
      <path class="cls-1" d="m176.52,157.15q3.9.31,3.19,3.2c-1.06.75-2.13.73-3.19,0h0c-.35-.37-.71-.72-1.06-1.08h0c-.26-.23-.34-.47-.25-.7.09-.23.18-.35.26-.35h-.01c.33-.37.73-.69,1.06-1.07Z"/>
      <path class="cls-1" d="m193.55,170.99c-4.9-.7-5.11-.9-5.31-5.36-.05-1.06.02-2.12.03-3.18.79.99,1.02,2.17,1.05,3.39.07,2.76,1.52,4.06,4.22,4.09.01.35.01.71.01,1.06Z"/>
      <path class="cls-1" d="m266.99,155.02c1.71,2.62.87,3.96-2.12,4.23,0-1.07,0-2.14,0-3.21.36-.34.72-.68,1.08-1.03.35,0,.7,0,1.05,0Z"/>
      <path class="cls-1" d="m187.16,160.36c-1.27.69-1.94,1.79-2.16,3.19-1.12-3.19-.83-3.62,2.16-3.19Z"/>
      <path class="cls-1" d="m188.19,161.43c-.34-.36-.69-.72-1.03-1.08.34.36.69.72,1.03,1.08Z"/>
      <path class="cls-1" d="m670.15,120.85c-.16,1.23-.79,1.96-2.03,1.88-1.26-.07-1.83-.96-1.76-2.09.08-1.32.73-2.43,2.26-2.14,1.13.22,1.53,1.26,1.53,2.35Z"/>
      <path class="cls-1" d="m693.8,114.57c-.2-.48-.43-.95-.6-1.44-.29-.89-.23-1.73.67-2.24.5-.29,1.05-.15,1.38.32.57.83.35,1.65-.27,2.35-.34.38-.78.67-1.18,1.01,0,0,0,0,0,0Z"/>
      <path class="cls-1" d="m767.92,135.1c-.63.07-1.14-.12-1.28-.67-.31-1.25.39-2.01,1.48-2.4.74-.26,1.51-.04,1.57.84.09,1.22-.75,1.87-1.77,2.23Z"/>
      <path class="cls-1" d="m476.67,499.87c1.16-.35,2.63-1.13,2.86.88.22,1.94-1.4,2.16-2.86,2.31v-3.19Z"/>
      <path class="cls-1" d="m471.38,510.47c.34.02.69.04,1.03.06.54.69,1.61.31,2.12,1.05,0,.35,0,.71,0,1.06-1.88.48-3.6.73-3.15-2.17Z"/>
      <path class="cls-1" d="m418.13,473.26c1.42.17,2.49.88,3.19,2.13-1.52-.03-2.77-.46-3.19-2.13Z"/>
      <path class="cls-1" d="m453.25,239.1c-1.75.15-3.71.28-3.85,2.54-.16,2.49,1.34,3.75,3.83,3.8-1.19,1.19-2.71,1.1-4.21,1.1,0,0,0,.01,0,.01-.66-.56-.43-1.57-1.07-2.15-.89-5.56.3-6.75,5.31-5.3Z"/>
      <path class="cls-1" d="m454.32,243.36c0-1.06-.02-2.12-.02-3.18.36.35.73.7,1.09,1.05-.36.71-.71,1.42-1.07,2.13Z"/>
      <path class="cls-1" d="m510.75,189.09q4.44-1.4,7.43,2.11c-.37.35-.72.71-1.07,1.07,0,0,0-.01,0-.01-2.59-.1-5.57.58-6.35-3.16Z"/>
      <path class="cls-1" d="m687.32,303.6c-.14,1.22-.24,2.71-1.75,2.74-1.81.04-2.06-1.59-2.07-2.97,0-1.22.37-2.66,1.8-2.72,1.92-.09,1.88,1.6,2.02,2.95Z"/>
      <path class="cls-1" d="m576.71,230.59c4.2-2.34,4.25-2.32,5.31,2.13q-3.75,1.18-5.31-2.13Z"/>
      <path class="cls-1" d="m619.45,264.15c1.18-.1,1.64.63,1.78,1.52.22,1.41.16,2.94-1.41,3.47-1.2.4-1.85-.66-2.04-1.75-.27-1.5.2-2.69,1.68-3.24Z"/>
      <path class="cls-1" d="m960.96,323.22c1.5.28,2.82.9,2.82,2.64,0,1.74-1.34,2.34-2.83,2.64-.99-.38-1.68-.92-1.06-2.12.01-.7.03-1.41.04-2.11.35-.35.69-.7,1.04-1.04Z"/>
      <path class="cls-1" d="m752.6,320.7c.97.2,1.52.8,1.46,1.77-.06,1.02-.75,1.51-1.74,1.34-.72-.12-1.22-.65-1.22-1.42,0-.96.45-1.62,1.5-1.7Z"/>
      <path class="cls-1" d="m557.53,261.47c.89-.85,2.01-1.05,3.18-1.07.84,1.05.76,2.11.05,3.18h0c-.36.36-.71.71-1.07,1.06h0c-.71.63-1.42.64-2.12-.02h.01c-.8-1.03-.73-2.09-.05-3.16Z"/>
      <path class="cls-1" d="m665.07,255.1c-.35-.01-.71-.03-1.06-.04-.04-2.15,1.04-3.18,3.16-3.17,0,0,0-.01,0-.01.34.38.74.69,1.07,1.07h-.02c.13,2.47-1.02,3.03-3.15,2.14Z"/>
      <path class="cls-1" d="m689.53,278.48c-.96-2.74-3.34-1.91-5.31-2.12,1.72-1.29,3.7-1.45,5.52-.62,1.75.8,1.02,1.9-.21,2.74Z"/>
      <path class="cls-1" d="m837.45,319.96c.2-1.67,1.38-2.84,2.15-4.22,1.44,2.51-.78,3.15-2.15,4.22Z"/>
      <path class="cls-1" d="m684.22,276.36c-.7,1.33-1.1,2.73-1.05,4.25-2-2.42-1.97-2.56,1.05-4.25Z"/>
      <path class="cls-1" d="m685.27,280.59c1.16-1.22,2.62-1.85,4.26-2.11-.94,1.68-2.46,2.17-4.26,2.11Z"/>
      <path class="cls-1" d="m863.01,341.27c0,1.08,0,2.16,0,3.24-.37.36-.72.36-1.04-.07.02-1.16.2-2.28,1.04-3.17Z"/>
      <path class="cls-1" d="m867.26,343.37c-.34.02-.68.05-1.02.08,0-.74,0-1.48,0-2.22.34.71.68,1.43,1.02,2.14Z"/>
      <path class="cls-1" d="m866.2,340.22c-.71,0-1.42,0-2.13-.01.71-.71,1.42-.72,2.13.01Z"/>
      <path class="cls-1" d="m839.6,315.74c-.35-.36-.71-.71-1.06-1.07.35.36.71.71,1.06,1.07Z"/>
      <path class="cls-1" d="m838.54,314.67c-.36-.35-.72-.7-1.08-1.05.36.35.72.7,1.08,1.05Z"/>
      <path class="cls-1" d="m864.08,340.2c-.36.36-.71.72-1.07,1.07.36-.36.71-.72,1.07-1.07Z"/>
      <path class="cls-1" d="m773.59,255.08c-.49,4.2-1.12,5.15-3.61,5.21-1.25.03-2.56-.11-3.03-1.52-.41-1.22.78-1.81,1.38-2.62,1.75-.36,3.5-.72,5.25-1.08Z"/>
      <path class="cls-1" d="m1055.67,191.17c-1.53-5.36-.96-6.49,3.15-6.34,1.21,5.69,1.08,5.95-3.15,6.34Z"/>
      <path class="cls-1" d="m1073.76,248.7c-.34-.36-.68-.73-1.02-1.09-.01-.35-.02-.7-.04-1.05-.67-.56-.42-1.57-1.06-2.14h0c-1.76-1.2-2.31-2.63-.85-4.45,1.94.06,3.96-.18,5.55,1.34,1.13,1.25,1.22,2.67.63,4.18.02,1.79-.49,3.32-2.15,4.27,0,0,0,0,0,0-.33-.37-.69-.72-1.06-1.05Z"/>
      <path class="cls-1" d="m1076.96,235.88c.35.01.7.02,1.06,0,.7.01,1.41.02,2.11.03.01.35.02.71.01,1.06-1.43,1.44-3,1.9-4.81.68-.18-.24-.36-.48-.53-.72.72-.36,1.45-.71,2.17-1.07Z"/>
      <path class="cls-1" d="m1072.68,239.08c0-.35,0-.7,0-1.05.35-.01.69-.03,1.04-.05.09.17.17.35.26.52-.25.62-.62.95-1.31.58Z"/>
      <path class="cls-1" d="m1073.72,237.98c.36-.35.71-.69,1.07-1.04,0,0,.07.07.07.07.17.9-.18,1.26-1.08,1.03,0,0-.05-.07-.05-.07Z"/>
      <path class="cls-1" d="m998.19,284.88c-.16,1.02-.01,2.39-1.35,2.55-1.84.22-1.62-1.41-1.84-2.57,1.07-.51,2.13-.5,3.19.02Z"/>
      <path class="cls-1" d="m394.68,183.75c.37-.71.74-1.42,1.11-2.13,1.39-1.47,2.78-.9,4.18-.02-.37,1.9-2.29,3.2-2.09,5.32q-2.92.48-3.21-3.17Z"/>
      <path class="cls-1" d="m359.6,195.47c1.06-.53,2.13-.52,3.19,0-.24,1.94.76,5.27-1.71,5.24-2.54-.04-1.08-3.37-1.49-5.23Z"/>
      <path class="cls-1" d="m356.36,203.55c-1.04.09-1.63-.46-1.79-1.39-.17-.97.27-1.69,1.3-1.74.91-.04,1.68.46,1.88,1.37.22,1.03-.54,1.48-1.38,1.76Z"/>
      <path class="cls-1" d="m510.7,245.49c-.13,1.97-.08,4.12-3.15,3.19,0-1.41,0-2.83.01-4.24.69,0,1.39.01,2.08.02.5.19.86.54,1.06,1.03Z"/>
      <path class="cls-1" d="m454.31,240.18c-.35-.36-.7-.72-1.06-1.07.35.36.7.72,1.06,1.07Z"/>
      <path class="cls-1" d="m194.62,172.05c-.36-.35-.71-.71-1.07-1.06.36.35.71.71,1.07,1.06Z"/>
      <path class="cls-1" d="m649.67,217.85c.25-1.6,1.14-2.61,2.75-2.63,1.58-.02,2.66.88,2.79,2.52.13,1.6-.67,2.83-2.31,2.89-1.76.06-2.88-1-3.22-2.77Z"/>
      <path class="cls-1" d="m734.28,263.59c1.99-1.04,3.95-1.27,4.64,1.35.85,3.22-1.81,2.67-3.61,2.9h0c-.33-.38-.72-.7-1.06-1.06h0c-.27-.23-.37-.46-.28-.7.09-.24.17-.36.26-.36.02-.71.04-1.42.06-2.13Z"/>
      <path class="cls-1" d="m506.38,161.78c0,1.14-.28,2.2-1.59,2.33-1.26.13-2.03-.67-1.92-1.91.1-1.11.82-2,2-2.12,1.13-.12,1.44.74,1.51,1.7Z"/>
      <path class="cls-1" d="m469.22,96.5c1.42,0,2.83-.01,4.25-.02.34.02.68.03,1.02.03,2.74,2.41,2.74,2.59.03,5.27h.02c-.35.37-.7.73-1.08,1.07l.02-.02c-1.57,1.19-2.37.06-3.17-1.05h0c-.83-.98-1.34-2.18-2.14-3.19.35-.7.71-1.39,1.06-2.09Z"/>
      <path class="cls-1" d="m501.13,115.61c-.5-.14-1.03-.21-1.48-.44-1.28-.64-2.52-1.56-2.26-3.12.35-2.17,2.3-1.56,3.75-1.73,0,0,0,0,0,0,1.79,1.06,2.38,2.42,1.06,4.25h0c-.34.37-.74.69-1.08,1.06v-.02Z"/>
      <path class="cls-1" d="m1090.8,236.99c-1.43-.18-2.51-.88-3.21-2.15.95-.74,1.99-1.36,3.12-.53,1.04.76.38,1.77.09,2.68Z"/>
      <path class="cls-1" d="m484.12,473.26c.18-2.7-.94-5.19-1.3-7.8-.26-1.87.74-3.01,2.09-3.96,1.59-1.12,2.61-.2,3.46,1.11,2.25,2.56-.54,4.28-1.06,6.39,3.99,3.94,4.04,4.3,1.04,7.43-1.05-1.53-2.77-2.17-4.23-3.16Z"/>
      <path class="cls-1" d="m471.34,459.42c0,1.42,0,2.84,0,4.26-.36-.71-.71-1.43-1.07-2.14-1.69-.93-4.33.56-5.32-2.13.71-.35,1.42-.71,2.13-1.06,1.51-.01,2.92.39,4.26,1.06Z"/>
      <path class="cls-1" d="m479.86,481.77c.17,3.8.17,3.82-2.66,2.54-.92-.42-1.77-.98-2.66-1.47,1.86.06,3.65-.2,5.32-1.06Z"/>
      <path class="cls-1" d="m474.54,460.49c-.38-1.09-1.52-2.66,1.17-1.74.99.34,2.05.46,3.08.68,0,.35,0,.71,0,1.06-1.42,0-2.84,0-4.26,0Z"/>
      <path class="cls-1" d="m489.44,467.93c1.42,0,2.84,0,4.26,0-1.42,1.21-2.84,1.21-4.26,0Z"/>
      <path class="cls-1" d="m488.38,467.94c.36-.71.71-1.42,1.07-2.13,0,.71,0,1.42,0,2.12-.36,0-.71,0-1.07,0Z"/>
      <path class="cls-1" d="m484.13,473.26c0,.71,0,1.42,0,2.13-.74-.71-.74-1.42,0-2.13Z"/>
      <path class="cls-1" d="m481.99,478.58c0-.71,0-1.42,0-2.13.72.71.72,1.42,0,2.13Z"/>
      <path class="cls-1" d="m486.25,476.45c.71,0,1.41-.02,2.12-.02-.7.75-1.41.75-2.12.02Z"/>
      <path class="cls-1" d="m476.67,479.64c.71,0,1.42,0,2.13,0-.71.72-1.42.71-2.13,0Z"/>
      <path class="cls-1" d="m484.12,475.38c.37.35.73.71,1.1,1.06-.37-.36-.73-.71-1.1-1.06Z"/>
      <path class="cls-1" d="m481.99,476.45c-.35-.35-.71-.71-1.06-1.06.35.35.71.71,1.06,1.06Z"/>
      <path class="cls-1" d="m481.99,472.19c-.35-.35-.71-.71-1.06-1.06.35.35.71.71,1.06,1.06Z"/>
      <path class="cls-1" d="m378.73,433.88c.36.71.72,1.43,1.08,2.14-.36-.71-.72-1.43-1.08-2.14Z"/>
      <path class="cls-1" d="m388.35,177.37c1.65-5.4,5.5-5.41,10.66-.02-.93,1.72-2.84,1.5-4.3,2.16-1.47-1.81-3.46-1.12-5.31-1.09-.5-.2-.85-.55-1.05-1.04Z"/>
      <path class="cls-1" d="m418.14,155.03c1.03.04,2.08-.01,3.1.15,1.39.23,2.11,1.12,1.9,2.57-.16,1.12-.79,1.92-1.94,2.14-1.44.27-2.35-.53-2.72-1.8-.28-.97-.24-2.04-.34-3.07,0,0,0,0,0,0Z"/>
      <path class="cls-1" d="m370.22,175.23c-1.05-.01-2.11-.02-3.16-.03-.01-.7-.03-1.4-.05-2.09-.27-.24-.36-.47-.27-.7.09-.23.19-.35.28-.35.01-.34.02-.69.02-1.03,4.18-.47,4.63.13,3.18,4.21Z"/>
      <path class="cls-1" d="m394.71,179.5c.36.71.72,1.41,1.08,2.12-.36-.71-.72-1.41-1.08-2.12Z"/>
      <path class="cls-1" d="m915.14,211.46c.01,1.05.02,2.11.03,3.16-.48.2-.95.47-1.45.6-2.3.58-4.06-.48-4.36-2.57-.39-2.72,2.09-2.1,3.69-2.32.33.04.66.06,1,.06.39.34.76.7,1.12,1.07h-.03Z"/>
      <path class="cls-1" d="m854.5,180.57c.35.36.7.71,1.04,1.07-.49.72-1.01,1.45-1.9,1.67-1.91.47-3.4-.39-4.56-1.78-.61-.73-.5-1.69.32-2.28,1.63-1.18,2.92-.09,4.21.77.29.19.59.37.88.55Z"/>
      <path class="cls-1" d="m471.35,463.68c1.06-.71,2.13-1.42,3.19-2.13-.01,2.42,1.2,4.34,2.41,6.33,2.31,3.78,2.19,4.97-1.19,7.63-2.01,1.58-3.68,3.22-4.47,5.71-.46,1.45-1.39,2.51-3.11,2.29-1.75-.22-2.84-1.28-3.34-2.97-.37-1.24-.28-2.48.19-3.64,1.23-3.03,2.56-6.03,3.92-9.22,2.27,1.8.4,3.91,1.06,5.61,5.23-2,5.66-5.34,1.33-9.61Z"/>
      <path class="cls-1" d="m488.37,497.74c-.46-.21-1-.33-1.38-.64-.97-.8-1.65-1.77-1.09-3.1.1-.25.54-.53.78-.51,1.68.18,1.46,1.59,1.64,2.71.08.5.03,1.02.05,1.53,0,0,0,0,0,0Z"/>
      <path class="cls-1" d="m481.99,504.12c.48-.19.97-.56,1.43-.52,1.02.08,2.61.21,2.57,1.27-.05,1.65-1.81,1.16-2.94,1.37-.83-.47-1.68-.93-1.07-2.13Z"/>
      <path class="cls-1" d="m484.12,516.9c0,1.06,0,2.13,0,3.19-1.42-.17-2.48-.88-3.19-2.12.9-.85,2.02-1.05,3.2-1.07Z"/>
      <path class="cls-1" d="m466.03,463.69c.7-.01,1.4-.02,2.11-.03.4.58.72,1.34-.12,1.62-1.27.43-1.65-.63-1.98-1.59Z"/>
      <path class="cls-1" d="m496.89,497.74c.95.33,2.15.8,1.16,1.93-.93,1.06-1.65-.09-2.22-.86.04-.67.65-.77,1.06-1.07Z"/>
      <path class="cls-1" d="m482.73,498.63c.14-.05.29-.16.4-.13.11.03.26.21.24.32-.05.43-.3.52-.61.22-.07-.07-.03-.27-.03-.41Z"/>
      <path class="cls-1" d="m494.76,496.67c-.35.35-.71.71-1.06,1.06-.36,0-.72,0-1.08,0,0,0,0,0,0,0,.31-1.16.75-2.05,2.14-1.08Z"/>
      <path class="cls-1" d="m398.97,439.21c-1.41,0-2.83,0-4.24,0,0-.36-.01-.73-.02-1.09,1.51,0,3.03-.03,4.26,1.08Z"/>
      <path class="cls-1" d="m464.96,459.42c-.35.35-.71.7-1.06,1.05.35-.35.71-.7,1.06-1.05Z"/>
      <path class="cls-1" d="m591.62,316.81c1.06.36,2.11.73,3.17,1.09,0,.7.01,1.39.02,2.09-.37.34-.72.7-1.06,1.07,0,0,0,0,0,0-2.23.04-4.21-.26-4.22-3.17.35-.01.69-.03,1.04-.05.36-.34.71-.69,1.06-1.04h0Z"/>
      <path class="cls-1" d="m648.02,326.38c-.5.92-1.21,1.63-2.12,2.13,0,0-.52,0-.52,0h-.52c-.36-.36-.72-.72-1.08-1.07.95-3.45,1.61-3.61,4.25-1.05Z"/>
      <path class="cls-1" d="m694.86,338.1c-1.42-.01-2.83-.03-4.25-.04.33-1.4.82-2.83,2.56-2.71,1.59.1,1.57,1.55,1.69,2.75Z"/>
      <path class="cls-1" d="m534.14,272.12c.24-1.87,1.34-2.91,3.16-3.25,0,0,.08.08.08.08.8,1.86-.13,2.83-1.77,3.43-.51.01-.99-.07-1.46-.27Z"/>
      <path class="cls-1" d="m726.36,355.03c-.2.91-.69,1.59-1.69,1.55-.98-.03-1.62-.62-1.47-1.64.18-1.2,1.01-1.73,2.19-1.47.76.17,1.04.79.97,1.55Z"/>
      <path class="cls-1" d="m834.28,398.74c-1.06.71-2.12,1.42-3.18,2.13-.43-1.18-2.3-2.37-.5-3.61,1.61-1.11,3.02-.43,3.68,1.48Z"/>
      <path class="cls-1" d="m941.79,332.76c3.96,2.75,3.95,2.79-1.1,5.31-.21,1.95-1.63,2.13-3.16,2.14-.71,0-1.41-.01-2.12-.02-.62-.08-.97-.43-1.07-1.04v-3.19c-.15-.71-.16-1.42.02-2.13,1.22-3.27,1.58-3.5,4.16-2.43.79.33,1.47.88,2.21,1.33.37-.7.72-.69,1.06.03Z"/>
      <path class="cls-1" d="m987.54,334.89c0,.35,0,.7,0,1.05-.37.34-.69.73-1.06,1.08h0c-1.06.75-2.13.74-3.19,0h0c-1.11-.81-2.19-1.63-1.08-3.19.36-.35.72-.7,1.08-1.05,1.68.17,2.88,1.32,4.25,2.12Z"/>
      <path class="cls-1" d="m985.42,327.46c1.18,2.36.48,3.78-2.12,4.25-.34-.02-.69-.04-1.03-.05-.28-.21-.38-.43-.31-.67.08-.24.16-.36.25-.36.28-1.86,1.35-2.92,3.21-3.18Z"/>
      <path class="cls-1" d="m1072.68,239.09c-.35.36-.69.72-1.04,1.08.35-.36.69-.72,1.04-1.08Z"/>
      <path class="cls-1" d="m535.21,272.09c1.42,0,2.84,0,4.26,0,0,.35,0,.7,0,1.06-1.42,0-2.84,0-4.26,0,0-.36,0-.71,0-1.07Z"/>
      <path class="cls-1" d="m694.62,235.4q.76,3.52-3.18,4.25c-1.87-1.03-2.01-2.49-1.06-4.22,1.41-1.19,2.82-1.18,4.25-.03h0Z"/>
      <path class="cls-1" d="m627.59,181.07c.95-1.64,2.46-2.14,4.24-2.08,0,0,0,0,0,0,.33.38.73.7,1.06,1.08h-.02c.33.21.44.45.34.68-.1.24-.21.36-.31.36-.36,1.04-.72,2.09-1.08,3.13-.34.01-.68.03-1.01.04-.58-.63-1.6-.39-2.16-1.08l.02.02c-.68-.56-.44-1.58-1.07-2.16Z"/>
      <path class="cls-1" d="m566.23,209.41c1.08.08,1.51.74,1.58,1.67.08,1.07-.05,2.18-1.33,2.36-1.02.14-1.45-.7-1.52-1.62-.08-1.06.03-2.06,1.26-2.41Z"/>
      <path class="cls-1" d="m628.68,220.5c2.44-.06,4.76.09,5.29,3.2-1.41,2.06-2.84,2.03-4.28.03l-.02-.05c-.33-.36-.67-.71-1.02-1.05h0c-.62-.73-.63-1.44.05-2.13Z"/>
      <path class="cls-1" d="m556.9,201.47c.03.76-.24,1.37-1.03,1.51-1.2.22-1.98-.42-2.29-1.51-.28-.99.24-1.75,1.23-1.8,1.14-.06,1.92.6,2.1,1.8Z"/>
      <path class="cls-1" d="m557.4,173.7c.32,0,.64-.01.96-.02.25.74,1.08,1.96.17,2.15-1.5.31-.95-1.27-1.13-2.13Z"/>
      <path class="cls-1" d="m1059.66,127.92c-2.37,2.64-4.35,3.38-5.27-1.08,1.41,0,2.81,0,4.22.01.37.34.72.7,1.08,1.05h-.02Z"/>
      <path class="cls-1" d="m624.38,274.74c.34-.61.72-1.21,1.01-1.85.44-.95.72-2.25,2.14-1.62,1.2.53,1.05,1.76.66,2.77-.57,1.47-1.52,2.78-1.7,4.43-.15,1.4-.38,3.24-2.21,3.04-2.25-.24-3.77-2.05-4.48-4.06-.65-1.84,1.04-2.32,2.46-2.68.7-.67,1.41-.62,2.12-.03Z"/>
      <path class="cls-1" d="m483.55,304.97c-.07,1.49-.86,2.37-2.27,2.43-1.15.05-2.12-.54-2.07-1.85.05-1.4.99-2.29,2.31-2.46,1.25-.15,1.88.71,2.03,1.88Z"/>
      <path class="cls-1" d="m599.9,318.44c-1.82-.32-2.91-1.35-3.17-3.2,0,0-.02,0-.02,0,.37-.34.69-.73,1.07-1.07h0c.35-.4.71-.38,1.06,0,.34,0,.68.01,1.02.01.38.34.75.69,1.13,1.03-.01,1.19-.22,2.32-1.09,3.22Z"/>
      <path class="cls-1" d="m487.41,319.1c-.04.84-.59,1.18-1.32,1.21-.72.02-1.42-.22-1.43-1.09,0-.78.55-1.22,1.3-1.25.75-.03,1.29.34,1.45,1.13Z"/>
      <path class="cls-1" d="m562.12,288.92c.06.78-.3,1.28-1.07,1.33-.53.03-.95-.33-1.04-.87-.12-.77.28-1.28,1.05-1.33.52-.03.9.34,1.06.86Z"/>
      <path class="cls-1" d="m480.37,317.62c-.04.55-.25,1.08-.82,1.13-1.09.08-1.55-.61-1.47-1.62.05-.56.47-.99,1.07-.94.82.07,1.14.67,1.22,1.43Z"/>
      <path class="cls-1" d="m1647.2,213.07c-.37-.35-.74-.69-1.11-1.04.05-.21.09-.42.13-.62.13-.45.34-.99-.09-1.31-.68-.5-1.12.14-1.59.53-.18.11-.37.21-.55.32-1.4-.4-2.94-.91-2.61-2.7.35-1.83,2.1-1.47,3.46-1.57,3.08-.22,5.1,2.14,7.67,3.17-.16,3.73-2.97,3.08-5.31,3.21Z"/>
      <path class="cls-1" d="m1612.07,264.13c.04,1.77-.17,3.59.18,5.29.34,1.63,1.26.34,1.93.01-.04.51-.03,1.03-.12,1.54-.16.9-.57,1.73-1.6,1.64-.73-.06-1.14-.8-1.21-1.5-.26-2.38-.68-4.81.83-6.99Z"/>
      <path class="cls-1" d="m1702.56,160.89c.15-.48.22-1.02.48-1.44.75-1.23,1.83-1.73,2.85-.46.78.98.21,1.93-.82,2.49-.44.24-.96.32-1.45.48-.35-.36-.71-.71-1.06-1.07Z"/>
      <path class="cls-1" d="m1615.26,266.25c-.01-1.77.12-3.6-2.12-4.27,0-.7.02-1.4.03-2.1,0,0,0,0,0,0,4.54.86,3.46,3.56,2.09,6.36Z"/>
      <path class="cls-1" d="m1613.14,262c-.35.71-.71,1.41-1.06,2.12.35-.71.71-1.41,1.06-2.12Z"/>
      <path class="cls-1" d="m502.24,351.61c1.34.25,2.53.79,2.21,2.37-.32,1.53-1.53,2.43-3.09,2.38-1.43-.05-2.3-1.01-2.15-2.47.18-1.73,1.48-2.24,3.03-2.28Z"/>
      <path class="cls-1" d="m1788.77,117.26c1.04-1.41,2.16-2.96,4.17-2.02,1.25.58,1.41,2.14.89,3.19-1.66,3.34-3.41,1.75-5.06-.13-.29-.23-.38-.47-.29-.7.1-.23.19-.35.29-.35Z"/>
      <path class="cls-1" d="m1813.25,86.38c-.33-1.91-1.47-3.98,1.06-5.32,1.43.16,2.92.4,2.9,2.25-.03,2.56-1.95,2.94-3.96,3.07Z"/>
      <path class="cls-1" d="m1763.22,155.58c-3.14,1.32-1.82,4.1-2.1,6.36-1.55-1.92-.96-4.21-1.09-6.37.71-.36,1.42-.71,2.13-1.07.35.36.71.72,1.06,1.08Z"/>
      <path class="cls-1" d="m1776,151.32c-.71-.36-1.42-.71-2.13-1.07.71.36,1.42.71,2.13,1.07Z"/>
      <path class="cls-1" d="m1785.57,132.15c0,.35,0,.7,0,1.05-.35,0-.7.01-1.05.01.35-.35.7-.71,1.06-1.06Z"/>
      <path class="cls-1" d="m1848.37,77.85c0-.35.01-.7.02-1.04.32-.61.83-1.2.94-1.84.48-2.81,1.99-2.92,4.11-1.73.3.17.66.21,1,.32,1.27.41,3.2.51,2.58,2.46-.49,1.56-2.12,1.72-3.53.94-1.62-.9-2.49-.41-3.31,1.14-.68,1.29-1.35,2.86-3.3,2.82-.62-1.64.97-2.09,1.49-3.06Z"/>
      <path class="cls-1" d="m1835.6,105.54c-.67.16-1.68.38-1.71-.45-.07-1.95.21-3.92.36-5.94,2.22.36,2.01,1.98,2.41,3.19,0,0,0,0,0,0-1.03.84-.03,2.36-1.06,3.19Z"/>
      <path class="cls-1" d="m1836.67,107.67c.71,0,1.42,0,2.13,0,.51,1.06.51,2.13,0,3.19-1.67-.43-2.1-1.68-2.13-3.2Z"/>
      <path class="cls-1" d="m669.18,145.43c.07.71-.31,1.31-.85,1.77-1.08.91-2.16,1.86-3.37,2.58-1.48.89-2.7,3.53-4.86,1.39-1.23-1.21.33-4.27,2.86-5.51,1.4-.69,3.03-.95,4.58-1.28.71-.15,1.41.11,1.64,1.05Z"/>
      <path class="cls-1" d="m1197.03,120.36c-.34-.34-.68-.68-1.02-1.01.67-1.06,1.34-2.12,2-3.18.32-.82.69-1.62.96-2.46.41-1.3.34-3.16,2.18-3.18,2.28-.03,2.03,1.98,2.21,3.52-.71,1.07-1.41,2.13-2.12,3.2-1.4,1.04-2.81,2.08-4.21,3.12Z"/>
      <path class="cls-1" d="m1011.8,277.97c1.14,1.76.35,3.52,0,5.29-1.06.82-2.12.78-3.18.02h0c-.38-.33-.7-.73-1.07-1.09,0-.35-.01-.7-.03-1.05-.61-.72-.6-1.42.06-2.1l-.02.02c.55-.67,1.56-.46,2.13-1.09h0c.71-.63,1.42-.63,2.13,0Z"/>
      <path class="cls-1" d="m847.22,236.1c-1.1-.17-2.02-.67-1.82-1.98.18-1.21,1.16-1.64,2.28-1.68.97-.04,1.8.44,1.85,1.41.08,1.46-.86,2.16-2.32,2.26Z"/>
      <path class="cls-1" d="m872.68,243.32c-1.05.05-1.73-.47-1.8-1.44-.1-1.4.79-2.31,2.04-2.62,1.17-.29,2.09.29,2.02,1.61-.07,1.36-1.03,2.09-2.26,2.45Z"/>
      <path class="cls-1" d="m654.16,259.86c-1.41,0-2.82,0-4.23,0,0,0,0,0,0,0,1.97-2.65,2.25-2.65,4.23,0,0,0,0,0,0,0Z"/>
      <path class="cls-1" d="m1090.51,225.79c-1.04.11-2.1.39-3.11.29-1.03-.11-2.17-.54-2.25-1.81-.07-1,.87-1.42,1.64-1.83,1.24-.65,2.5-1.28,3.74-1.91,1.12,1.76,1.08,3.52-.01,5.27Z"/>
      <path class="cls-1" d="m1124.62,253.49c-3.32-.73-3.35-.79-2.12-4.25,0,0-.01,0-.01,0,3.29-1.17,4.42-.18,3.18,3.18h.01c-.34.37-.73.68-1.06,1.07h0Z"/>
      <path class="cls-1" d="m768.81,186.3c-1.08-.02-2.2-.19-2.2-1.52,0-.99.93-1.34,1.84-1.37,1.08-.03,2.19.19,2.2,1.51,0,.99-.91,1.31-1.83,1.38Z"/>
      <path class="cls-1" d="m1642.71,160.28c-.22,1.63-1.27,2.54-3.09,2.47-.74-.03-1.36-.57-1.28-1.31.19-1.71,1.21-2.85,2.94-3.03,1.03-.11,1.44.69,1.42,1.87Z"/>
      <path class="cls-1" d="m1646.09,212.04c-.7-.36-1.4-.72-2.1-1.08,0,0,.07-.1.07-.1,1.21-.63,2.09-.62,2.12,1.07,0,0-.08.1-.08.1Z"/>
      <path class="cls-1" d="m1523.73,336.5c-.35,0-.7.01-1.05.02-1.42.74-2.83.82-4.23-.05-.2-2.09-1.99-2.94-3.27-4.19.04-.23.09-.46.13-.7.56-1.08,1.42-1.87,2.47-2.45.23-.04.46-.09.7-.13.34.02.68.04,1.01.06,1.73.38,1.25,2.24,2.13,3.19h0c.58.62,1.57.42,2.13,1.07h0c.76,1.06.78,2.12,0,3.18Z"/>
      <path class="cls-1" d="m1551.42,282.25c0,.35,0,.69,0,1.04-.72,4.58-.85,4.72-4.24,4.23.06-2.61-.58-5.57,3.16-6.36.36.36.72.72,1.07,1.09Z"/>
      <path class="cls-1" d="m1516.33,326.91c1.13.27,1.85.98,2.15,2.1,0,0-.08.07-.08.07-2.01.67-3.24.11-3.41-2.15.44-.53.88-.54,1.34-.03Z"/>
      <path class="cls-1" d="m1713.2,219.43c0,.35,0,.71,0,1.06-3.86-1.58-4.02-2.39-1.05-5.31-.75,1.69-1.67,3.41,1.05,4.25Z"/>
      <path class="cls-1" d="m1667.44,339.7c1.17-2.08,2.87-3.26,5.32-3.19.31.24.42.47.32.71-.1.24-.21.36-.31.36,0,.71,0,1.42,0,2.13h0c-1.09-.43-1.92-.32-2.16,1.03-1.05,0-2.11,0-3.16.01,0-.35,0-.7,0-1.05Z"/>
      <path class="cls-1" d="m1672.96,331.37c-1.92,1.1-3.16,1.03-4.71-.05,1.49-1.48,2.77-1.38,4.71.05Z"/>
      <path class="cls-1" d="m1662.12,342.89c.05,1.06.66,2.13,0,3.19-.93-.16-2.24.07-2.37-1.22-.14-1.54,1.28-1.66,2.36-1.97Z"/>
      <path class="cls-1" d="m1675.95,334.38c.5.92,1.21,1.63,2.13,2.13-.35.71-.71,1.42-1.06,2.13-.35-.36-.71-.71-1.06-1.07-.39-.31-.67-.75-1.06-1.06h0c.35-.71.71-1.42,1.06-2.13Z"/>
      <path class="cls-1" d="m1718.54,253.47c-.16.76.22,1.87-1.01,1.99-.52.05-.86-.58-.84-1.1.06-1.38,1-1.07,1.85-.88,0,0,0,0,0,0Z"/>
      <path class="cls-1" d="m1661.05,340.76v-1.06c.71.36,1.42.71,2.13,1.07-.35.35-.71.71-1.06,1.06-.36-.36-.71-.71-1.07-1.07Z"/>
      <path class="cls-1" d="m1748.33,226.88c.75-2.76,2.5-5.14,2.27-8.32-.1-1.33,1.95-.55,3.05-.19v1.06c.04.21.08.41.13.62.11.41.13.83.05,1.25-.23.62-.6,1.11-1.26,1.31-1.25,1.58-1.16,4.5-4.24,4.27Z"/>
      <path class="cls-1" d="m1757.91,199.21c-.83-2.09.25-2.91,2.13-3.19,1.07,2.25.14,3.17-2.13,3.19Z"/>
      <path class="cls-1" d="m1679.1,280.94c.25.23.61.41.64.63.08.55-.22.96-.82.8-.19-.05-.4-.53-.37-.79.02-.23.36-.43.55-.65Z"/>
      <path class="cls-1" d="m1681.17,276.55c.13.06.32.09.38.19.06.09.03.33-.05.4-.34.27-.57.16-.6-.27,0-.1.17-.21.26-.31Z"/>
      <path class="cls-1" d="m1682.35,272.62c.36.71.72,1.43,1.07,2.14-.36-.71-.72-1.43-1.07-2.14Z"/>
      <path class="cls-1" d="m1684.47,281.16c.36.35.71.71,1.07,1.06-.36-.35-.71-.71-1.07-1.06Z"/>
      <path class="cls-1" d="m1755.74,201.72c-.1-.09-.3-.19-.3-.28,0-.41.23-.55.57-.33.09.06.15.3.1.4-.05.1-.24.14-.37.2Z"/>
      <path class="cls-1" d="m1745.87,221.38c.14-.05.29-.16.4-.13.11.03.26.21.24.31-.05.43-.3.52-.61.22-.07-.07-.03-.27-.03-.41Z"/>
      <path class="cls-1" d="m1740.55,236.28c.14-.05.29-.16.4-.13.11.03.26.21.24.31-.05.43-.3.52-.61.22-.07-.07-.03-.27-.03-.41Z"/>
      <path class="cls-1" d="m1746.19,233.77c-.1.42.09.97-.53,1.12-.03,0-.21-.26-.18-.36.09-.31.23-.61.39-.89.33-.54.45-.49.32.13Z"/>
      <path class="cls-1" d="m1746.2,233.26c.08-.6-.12-1.61.53-1.61.66,0,.45,1.01.53,1.61,0,0,0,0,0,0-.35,0-.71,0-1.06,0Z"/>
      <path class="cls-1" d="m1764.29,156.64l-1.07-1.07c.36.36.71.71,1.07,1.07Z"/>
      <path class="cls-1" d="m1020.37,370.61c-.11.14-.19.3-.32.42-1.69,1.62-4.23,3.53-5.9,2.39-2.35-1.6-1.59-4.68-.24-7.16.22.11.44.21.66.32.69,2.88,3.32,2.71,5.38,3.42.14.2.28.4.42.61Z"/>
      <path class="cls-1" d="m1017.13,364.19c.35,0,.7,0,1.06,0,1.34.23,2.6.65,3.69,1.48,1.44,1.09,1.77,2.37.58,3.87-.23-.07-.46-.14-.69-.21-2.34-1.69-6.03.2-7.8-2.97,0,0-.07-.08-.07-.08,1.08-.69,2.15-1.39,3.23-2.08Z"/>
      <path class="cls-1" d="m1022.47,369.53c-.7.36-1.4.72-2.1,1.09,0,0-.07-.07-.07-.07,0-1.66.82-1.77,2.06-1.11l.1.09Z"/>
      <path class="cls-1" d="m949.04,354.6c-.37.35-.73.71-1.1,1.06-.35.41-.71.39-1.06,0-.35,0-.7-.01-1.04-.01-.35-.37-.74-.69-1.08-1.07h.01c-1.17-1.57-.04-2.37,1.06-3.18,2.11.02,3.18,1.09,3.22,3.19Z"/>
      <path class="cls-1" d="m1230,484.44c-.81-1.41-.8-2.83,0-4.25,1.51-.02,2.91.39,4.25,1.07-.39,2.43-2.04,3.17-4.24,3.17Z"/>
      <path class="cls-1" d="m1391.7,157.77c-.91,2.36-2.39,2.2-4.53,1.27,1.5-1.86,3.11-1.15,4.53-1.3,0,0,0,.02,0,.02Z"/>
      <path class="cls-1" d="m961.78,308.83c-1.42-1.14-3.44-1.84-3.17-4.25,4.82.1,6.71,3.14,7.4,7.38-1.71-.07-2.87-1.25-4.2-2.08-.39-.22-.53-.45-.4-.69.12-.24.25-.36.38-.36Z"/>
      <path class="cls-1" d="m1098.02,391.86c-.49-.17-1.05-.23-1.47-.52-1.5-1.01-2.31-2.54-.9-3.91,1.44-1.41,2.37.51,3.44,1.22,0,0,0,0,0,0,.33.38.72.7,1.06,1.08h-.01c.75,1.26-.48,1.52-1.08,2.1-.34,0-.69,0-1.03.03Z"/>
      <path class="cls-1" d="m1155.51,267.31c.01-1.06.02-2.11.03-3.17.47-.2.93-.45,1.42-.58,1.08-.3,2.09-.21,2.42,1.08.3,1.17-.24,2.03-1.36,2.36-.8.24-1.67.21-2.52.31Z"/>
      <path class="cls-1" d="m1335.37,365.26c2.86.29,5.88-.77,8.56,1.01-.09.21-.18.42-.27.63-1.42,1.4-3.98.96-4.96,3.07-.03.21-.06.43-.09.64-.75.46-1.47.99-2.26,1.36-1.13.52-1.65,2.92-3.37,1.43-1.32-1.15-.26-2.61.22-3.91.73-1.41,1.45-2.82,2.18-4.23Z"/>
      <path class="cls-1" d="m1616.33,350.31c1.85,4.64,1.78,4.78-3.17,6.42-.26-1.72-1.48-2.48-2.86-3.36-3.14-1.99-2.94-2.95.72-5.17.2.11.39.22.59.32,1.06,1.96,3.42.47,4.72,1.78Z"/>
      <path class="cls-1" d="m1573.79,390.77c1.06,0,2.12.02,3.18.02-.9.84-2.01,1.04-3.19,1.06,0-.36,0-.72,0-1.08Z"/>
      <path class="cls-1" d="m1581.24,385.47c-.01-.71-.02-1.42-.03-2.12.36.71.72,1.41,1.09,2.12-.35,0-.7,0-1.05,0Z"/>
      <path class="cls-1" d="m1611.02,348.2c.71-.36,1.41-.72,2.12-1.08,0,0,.02.04.02.04,0,1.75-.89,1.72-2.11,1.07l-.03-.04Z"/>
      <path class="cls-1" d="m1603.59,357.8c-.36.36-.71.72-1.07,1.09.36-.36.71-.73,1.07-1.09Z"/>
      <path class="cls-1" d="m1582.77,423.54c-1.51,2.36-3.39,2.56-5.5,1.91-.35-.11-.67-.77-.74-1.21-.08-.54.33-1.08.89-1.08,1.66,0,3.39-.52,5.35.38Z"/>
      <path class="cls-1" d="m1591.9,408.83c1.81.51,3.66.98,5.47,1.56.67.21,1.26.72,1.06,1.54-.2.82-.91.97-1.63.79-2.18-.58-4.53-.96-4.9-3.88Z"/>
      <path class="cls-1" d="m1579.08,430.17c-.35-.35-.71-.7-1.06-1.05,3.25-1.71,4.28.22,5.14,3.12-2.32.63-2.67-1.77-4.08-2.07Z"/>
      <path class="cls-1" d="m1588.23,428.54c.61.23.93.67.76,1.2-.37,1.18-.93,2.41-2.24,2.64-.95.17-1.03-.81-.82-1.5.35-1.18.77-2.38,2.31-2.35Z"/>
      <path class="cls-1" d="m1618.63,392.08c-.03.92-.5,1.38-1.28,1.33-1.01-.07-1.56-.71-1.52-1.73.02-.57.43-1.01,1-1.04,1.01-.05,1.54.61,1.8,1.43Z"/>
      <path class="cls-1" d="m1611.39,391.89c.1.29.33.62.25.85-.08.22-.48.32-.74.48-.1-.28-.34-.62-.26-.84.08-.22.48-.33.74-.48Z"/>
      <path class="cls-1" d="m1586.79,424.08c-.14,0-.35.08-.41.01-.29-.3-.22-.56.18-.64.11-.02.32.11.35.21.04.11-.08.27-.12.41Z"/>
      <path class="cls-1" d="m1624.04,392.15c-.14,0-.35.08-.41.01-.29-.3-.22-.56.18-.64.11-.02.32.11.35.21.04.11-.08.27-.12.41Z"/>
      <path class="cls-1" d="m1662.11,360.99c-.71-.71-1.41-1.42-2.12-2.14v-2.13c1.2.21,2.28.66,3.05,1.65,1.03,1.34.52,2.15-.93,2.62Z"/>
      <path class="cls-1" d="m1616.34,348.25c-.36-.37-.72-.73-1.08-1.1.36.37.72.73,1.08,1.1Z"/>
      <path class="cls-1" d="m1252.34,392.92c1.06-.35,2.12-.7,3.18-1.05.9,1.58,2.57,2.16,3.98,3.11,2.64,1.78,2.51,2.39-.75,4.36-.2-.11-.41-.22-.61-.33-1.11-1.47-2.46-1.86-4.1-.89-.22.06-.44.11-.66.16-1.3-1.6-1.03-3.51-1.03-5.36Z"/>
      <path class="cls-1" d="m1177.41,429.21c.32-1.67,1.39-2.11,2.72-1.97.95.1,1.61.69,1.5,1.75-.13,1.22-.97,1.87-2.11,1.9-1.15.04-1.94-.59-2.11-1.68Z"/>
      <path class="cls-1" d="m1320.41,391.83c-1.06.01-2.12.02-3.17.03-.73-1.45.26-2.29,1.11-3.19,0,0,0,0,0,0,1.24.69,1.97,1.71,2.07,3.15Z"/>
      <path class="cls-1" d="m1258.75,399.34c-2.17,1.55-3.91.97-5.37-1.06,0,0,.09-.1.09-.1,2.16-1.69,3.84-1.08,5.22,1.06l.06.1Z"/>
      <path class="cls-1" d="m1357.72,425.92c-1.07,1.77-2.13,3.54-3.2,5.31,0-1.41.01-2.83.02-4.24,0,0-.01,0-.01,0,.36-.35.72-.71,1.07-1.07,0,0,0,.01,0,.01.71,0,1.41,0,2.12-.01Z"/>
      <path class="cls-1" d="m1354.52,431.23c-.12.83-.45,1.54-1.09,2.11.36-.7.73-1.4,1.09-2.11Z"/>
      <path class="cls-1" d="m1179.95,362.06c-.11.7-.12,1.43-.34,2.09-.36,1.1-1.15,1.9-2.36,1.64-1.27-.27-1.47-1.39-1.37-2.52.11-1.23.8-1.98,2.07-1.87.68.06,1.34.43,2,.67,0,0,0,0,0,0Z"/>
      <path class="cls-1" d="m1343.93,366.28c1.27,1.88.72,3.31-1.3,3.96-1.25.4-2.68.27-4.03.38,0,0-.06-.09-.06-.09.02-3.61,4.21-1.92,5.3-4.18l.09-.07Z"/>
      <path class="cls-1" d="m1570.85,400.31c-.23-.18-.59-.33-.66-.56-.05-.19.25-.48.39-.72.23.18.59.33.65.55.05.2-.24.48-.38.73Z"/>
      <path class="cls-1" d="m1575.58,399.13c.14-.05.29-.16.4-.13.11.03.26.21.24.32-.05.43-.3.52-.61.22-.07-.07-.03-.27-.03-.41Z"/>
      <path class="cls-1" d="m1574.84,395.05c0,.35,0,.71,0,1.06-.6-.21-1.54-.29-1.23-1.18.19-.57.83-.18,1.24.12Z"/>
      <path class="cls-1" d="m1578.03,396.11c-.35-.71-.71-1.42-1.06-2.13,1.17.3,2.03.76,1.06,2.13Z"/>
      <path class="cls-1" d="m1576.97,390.79c.02-1.17.21-2.29,1.06-3.19-.02,1.18-.22,2.29-1.06,3.19Z"/>
      <path class="cls-1" d="m1578.04,387.6c.71-.35,1.41-.7,2.12-1.06-.71.35-1.41.7-2.12,1.06Z"/>
      <path class="cls-1" d="m1585.5,384.35c.71.37,1.43.74,2.14,1.11-.84-.13-1.57-.47-2.14-1.11Z"/>
      <path class="cls-1" d="m0,651c2.83.36,5.67.71,8.5,1.07,1.28,1.13,3.48,1.8,2.14,4.25,0,0,0,0,0,0-3.78,1.96-7.25.85-10.65-1.07,0-1.42,0-2.84,0-4.26Z"/>
      <path class="cls-1" d="m0,679.74c1.57.36,2.97.97,2.81,2.91-.13,1.63-1.44,2.11-2.81,2.41v-5.32Z"/>
      <path class="cls-1" d="m304.42,598.84c-.06-3.71,4.31-4.39,5.19-7.53.12-.43,1.29.06,1.66.71.46.79.67,1.81.2,2.53-1.77,2.71-1.49,5.18.33,7.75.68.96.16,2.04-.7,2.81-1.33,1.19-1.36,2.77-1.38,4.37-1.04,1.09-1.36,2.88-3.18,3.19,0,0-.51.05-.51.05-.36,0-.67-.11-.94-.35,0,0-.35-.37-.35-.37-.23-.27-.34-.59-.34-.95,0,0,0-.51,0-.51-.79-1.38-1.97-2.56-2.14-4.25.09-.62.44-.98,1.07-1.05,1.64-.24,3.86.67,4.66-1.34.81-2.04-1.14-3-2.53-4.01-.64-.07-.97-.43-1.06-1.05Z"/>
      <path class="cls-1" d="m129.84,639.28c-.43.53-1.1,1.01-1.25,1.61-.39,1.57.84,3.84-1.65,4.46-2.45.62-4.96.72-6.65-1.81,2.44-2.09,5.62-3.37,6.72-6.89.43-1.37,1.69-1,2.29.12.38.72.38,1.65.55,2.49Z"/>
      <path class="cls-1" d="m1417.7,244.42c1.42.79,2.84.79,4.26,0,.72.5,1.6,1.18.99,2.02-1.2,1.64-3.06,1.34-4.68.83-1.6-.5-1.36-1.7-.57-2.85Z"/>
      <path class="cls-1" d="m1421.96,240.17h-3.19c-.35-.71-.71-1.42-1.06-2.13.42-.38.89-.67,1.41-.87,1.42-.25,2.78-.22,3.91.87.43,1.1.32,1.93-1.06,2.13Z"/>
      <path class="cls-1" d="m1420.9,255.07c-.92-.5-1.63-1.21-2.13-2.13-.04-1.85.85-1.84,2.13-1.07h0v3.19Z"/>
      <path class="cls-1" d="m1351.72,338.08c-1.9-1.03-1.99-2.52-1.06-4.26,2.45.02,3.8-2.51,6.6-2.81.1,4.11-4.25,4.46-5.54,7.07Z"/>
      <path class="cls-1" d="m397,607.36c-.04,1.06,0,2.14-.14,3.19-.16,1.28-.61,2.55-2.15,2.61-1.74.07-1.82-1.37-1.92-2.61-.09-1.06-.04-2.13-.05-3.19,0,0,0,0,0,0,.39-.32.7-.72,1.07-1.06h0c1.59-1.23,2.41-.13,3.19,1.06h0Z"/>
      <path class="cls-1" d="m118.57,584.93c.08-1.52,1.04-2,2.14-1.81,1.85.33,3.98.65,4.15,3.11.08,1.21-1.11,1.73-2.19,1.75-2.16.03-3.58-1.04-4.1-3.05Z"/>
      <path class="cls-1" d="m25.48,548.86c-.13,1.31-.23,2.76-1.89,2.66-1.86-.11-2.81-1.34-2.49-3.23.23-1.35.52-3.1,2.3-2.98,2.11.14,1.96,2.07,2.08,3.56Z"/>
      <path class="cls-1" d="m1327.24,357.24c.35,0,.7,0,1.05,0,0,0,0,0,0,0-.35.71-.71,1.41-1.06,2.12-.64-.71-.6-1.42,0-2.13Z"/>
      <path class="cls-1" d="m1327.24,357.24h-1.06c.35-.32.71-.32,1.06,0Z"/>
      <path class="cls-1" d="m1347.81,342.23c-.06.13-.09.32-.19.38-.09.06-.33.03-.4-.05-.27-.34-.16-.57.27-.59.1,0,.21.17.31.26Z"/>
      <path class="cls-1" d="m1254.86,305.1c-1.06-.36-2.13-.71-3.19-1.07,0-2.42.09-4.77,3.19-5.32.64.08.99.43,1.05,1.08.07,1.85-.19,3.65-1.05,5.32Z"/>
      <path class="cls-1" d="m1348.53,130.54c.36-.35.71-.69,1.07-1.04,2.88,2.24,3.84,4.79,2.82,7.39-.27.68-.71,1.21-1.45,1.3-.78.1-1.29-.43-1.63-1.05-1.13-2.09-.76-4.38-.82-6.61Z"/>
      <path class="cls-1" d="m1358.12,130.53c-.01.71-.02,1.41-.03,2.12-.64.98-1.36,1.82-2.71,1.56-.15-.17-.31-.33-.46-.5,0-2.12,0-4.24,0-6.36,0,0,0,0,0,0,1.59-1.25,2.4-.15,3.18,1.05h0c.62.7.64,1.41.02,2.12Z"/>
      <path class="cls-1" d="m663.06,577.56c-.35,0-.69,0-1.04.02-1.88,1.45-3.22.77-4.25-1.08,1.68-3.4,1.78-3.44,5.33-2.12.72,1.07.76,2.13-.03,3.19Z"/>
      <path class="cls-1" d="m643.98,540.96c.98.11,1.56.68,1.61,1.62.07,1.33-.83,1.81-1.97,1.67-.92-.11-1.53-.75-1.36-1.77.16-.91.7-1.51,1.71-1.52Z"/>
      <path class="cls-1" d="m1333.33,309.23c-1.21-.06-2.34-.32-2.36-1.61-.02-1.76,1.29-2.31,2.82-2.3,1.1.01,2.2.48,2.27,1.67.11,1.88-1.4,2.09-2.73,2.24Z"/>
      <path class="cls-1" d="m1416.64,221.01c.36.35.71.71,1.07,1.06-.36-.35-.71-.71-1.07-1.06Z"/>
      <path class="cls-1" d="m1210.06,323.83c1.66.32,2.09,1.38,1.95,2.7-.1.94-.67,1.6-1.72,1.49-1.22-.13-1.84-.97-1.89-2.09-.04-1.14.57-1.93,1.65-2.1Z"/>
      <path class="cls-1" d="m1266.52,252.92c.37-.7.74-1.4,1.12-2.1.7-.65,1.41-.66,2.12-.02.36.35.72.71,1.07,1.06-1.55,3.5-2.25,3.67-4.31,1.05Z"/>
      <path class="cls-1" d="m878.08,605.24c.78-.63,1.85-.89,2.15.15.77,2.61,1.22,5.3,1.84,8.14q-5.19-2.09-3.99-6.17c-.66-.71-.66-1.41,0-2.12Z"/>
      <path class="cls-1" d="m889.42,607.01c1.64-1.05,3.14-.72,5.34.08-2.4,1.21-3.8-.1-5.34-.08Z"/>
      <path class="cls-1" d="m817.42,604.17c.89-4.44,4.11-1.89,6.4-2.12.55,2.66-1.91,2.32-3.17,3.17,0,0-.04.02-.04.02-1.18-.02-2.29-.22-3.19-1.07Z"/>
      <path class="cls-1" d="m819.53,520.12c2.2,3.28,2.07,3.8-1.13,4.18-1.01.12-2.06.02-3.08.03h0q-.51-4.05,4.23-4.22h0Z"/>
      <path class="cls-1" d="m477.89,589.25c-.35-1.05-.7-2.11-1.05-3.16,0,0,0,0,0,0,.36-.35.72-.7,1.07-1.07,2.11-1.14,2.17-3.51,3.19-5.31.35-.36.71-.36,1.06,0h0c.36.35.71.71,1.07,1.06h0c.74,1.07.75,2.13,0,3.19h0c-.35.36-.71.71-1.07,1.06h0c-.36.34-.68.73-1.05,1.06,0,.71-.01,1.41-.02,2.12-.35.36-.71.71-1.06,1.07-.71,0-1.42-.01-2.13-.02Z"/>
      <path class="cls-1" d="m835.5,589.27c.36,0,.71,0,1.07,0,1.59,2.01-.09,6.21,4.26,6.39-1.73,3.26-4.72.3-6.91,1.38,0,1.1,1.18,1.11,1.61,1.8-.14.27-.28.54-.42.81-3.35,2.37-6.77,1.96-10.23.28.13-2.12-1.08-3.7-2.13-5.34,1.95-2.84,3.68-5.66,7.95-2.93,2.12,1.35,3.07-1.79,4.81-2.38Z"/>
      <path class="cls-1" d="m840.7,595.94c1.02-3.51,3.37-5.36,6.25-6.72-1.22,2.91-3.2,5.11-6.25,6.72Z"/>
      <path class="cls-1" d="m943.01,555.21c1.08.37,2.55.39,2.27,2.12-.05.32-.75.77-1.14.76-1.85-.05-2.05-1.47-2.19-2.88.35,0,.71,0,1.06,0Z"/>
      <path class="cls-1" d="m956.84,543.5c0,1.42,0,2.84,0,4.26-1.77,0-3.55,0-5.32,0,.11-2.13,2.75-2.37,3.2-4.26h0c.35-.36.71-.36,1.06,0,.35,0,.71,0,1.06,0Z"/>
      <path class="cls-1" d="m835.53,598.83c1.17.03,2.28.24,3.18,1.07,0,0-.02.03-.02.03-1.46.83-2.8,1.29-3.18-1.07l.02-.02Z"/>
      <path class="cls-1" d="m946.2,544.57c-.02,1.17-.22,2.29-1.06,3.19,0-1.06,0-2.12,0-3.18.18-.16.35-.32.53-.48.18.16.36.31.53.47Z"/>
      <path class="cls-1" d="m948.33,544.57h-2.13c-.3-.24-.4-.47-.3-.71.1-.24.2-.35.3-.35.71.35,1.42.71,2.13,1.06Z"/>
      <path class="cls-1" d="m1143.1,357.23c-5.29,1.56-5.49,1.46-6.37-3.18,1.61-.82,3.32-1.18,5.12-1.06,1.52.11,3.68-.52,4.25,1.24.68,2.12-2.19,1.75-3,3Z"/>
      <path class="cls-1" d="m949.23,564.07c.89.1,1.84.28,2.11,1.23.24.83-.47,1.22-1.2,1.29-.94.09-1.79-.23-2.05-1.21-.23-.84.36-1.22,1.14-1.31Z"/>
      <path class="cls-1" d="m962.17,565.86c-.35.35-.71.71-1.06,1.06-.13-.31-.29-.61-.4-.93-.25-.78-.81-2.01.15-2.22,1.49-.33,1.08,1.23,1.31,2.09Z"/>
      <path class="cls-1" d="m772.95,503.09c-.66-.05-1.36-.05-2.05-.18-1.36-.25-2.35-.94-1.98-2.49.3-1.26,1.38-1.47,2.49-1.34.69.08,1.39.24,2.04.48,1.23.45,3.43.07,3.34,1.83-.11,2.15-2.35,1.44-3.84,1.7Z"/>
      <path class="cls-1" d="m930.21,563.72c0-.71,0-1.41,0-2.12.75.71.75,1.41,0,2.12Z"/>
      <path class="cls-1" d="m949.4,546.69c.71.36,1.42.71,2.13,1.07-1.37.97-1.83.1-2.13-1.07Z"/>
      <path class="cls-1" d="m869.57,464.74c.43-1.86-1.98-4.32.61-5.55,2.04-.96,2.44,1.93,3.86,2.69.6.32,1.27.49,1.9.73,1.49-1.81,3.3-2.01,5.35-1.09.08.33.25.95.24.95-3.9,1.19-7.45,4.34-11.97,2.27,0,0,0,0,0,0Z"/>
      <path class="cls-1" d="m881.3,461.52c-1.58,1.34-3.5,1.04-5.35,1.09.11-1.62.19-3.35,2.15-3.78,2.06-.45,2.76,1.03,3.19,2.69Z"/>
      <path class="cls-1" d="m473.62,974.27c2.83.36,5.67.71,8.5,1.07,1.28,1.13,3.48,1.8,2.14,4.25,0,0,0,0,0,0-3.78,1.96-7.25.85-10.65-1.07,0-1.42,0-2.84,0-4.26Z"/>
      <path class="cls-1" d="m473.62,1003.01c1.57.36,2.97.97,2.81,2.91-.13,1.63-1.44,2.11-2.81,2.41v-5.32Z"/>
      <path class="cls-1" d="m778.04,922.11c-.06-3.71,4.31-4.39,5.19-7.53.12-.43,1.29.06,1.66.71.46.79.67,1.81.2,2.53-1.77,2.71-1.49,5.18.33,7.75.68.96.16,2.04-.7,2.81-1.33,1.19-1.36,2.77-1.38,4.37-1.04,1.09-1.36,2.88-3.18,3.19,0,0-.51.05-.51.05-.36,0-.67-.11-.94-.35,0,0-.35-.37-.35-.37-.23-.27-.34-.59-.34-.95,0,0,0-.51,0-.51-.79-1.38-1.97-2.56-2.14-4.25.09-.62.44-.98,1.07-1.05,1.64-.24,3.86.67,4.66-1.34.81-2.04-1.14-3-2.53-4.01-.64-.07-.97-.43-1.06-1.05Z"/>
      <path class="cls-1" d="m603.46,962.55c-.43.53-1.1,1.01-1.25,1.61-.39,1.57.84,3.84-1.65,4.46-2.45.62-4.96.72-6.65-1.81,2.44-2.09,5.62-3.37,6.72-6.89.43-1.37,1.69-1,2.29.12.38.72.38,1.65.55,2.49Z"/>
      <path class="cls-1" d="m1825.33,661.35c-1.9-1.03-1.99-2.52-1.06-4.26,2.45.02,3.8-2.51,6.6-2.81.1,4.11-4.25,4.46-5.54,7.07Z"/>
      <path class="cls-1" d="m870.62,930.63c-.04,1.06,0,2.14-.14,3.19-.16,1.28-.61,2.55-2.15,2.61-1.74.07-1.82-1.37-1.92-2.61-.09-1.06-.04-2.13-.05-3.19,0,0,0,0,0,0,.39-.32.7-.72,1.07-1.06h0c1.59-1.23,2.41-.13,3.19,1.06h0Z"/>
      <path class="cls-1" d="m592.19,908.2c.08-1.52,1.04-2,2.14-1.81,1.85.33,3.98.65,4.15,3.11.08,1.21-1.11,1.73-2.19,1.75-2.16.03-3.58-1.04-4.1-3.05Z"/>
      <path class="cls-1" d="m499.1,872.13c-.13,1.31-.23,2.76-1.89,2.66-1.86-.11-2.81-1.34-2.49-3.23.23-1.35.52-3.1,2.3-2.98,2.11.14,1.96,2.07,2.08,3.56Z"/>
      <path class="cls-1" d="m1800.86,680.51c.35,0,.7,0,1.05,0,0,0,0,0,0,0-.35.71-.71,1.41-1.06,2.12-.64-.71-.6-1.42,0-2.13Z"/>
      <path class="cls-1" d="m1800.86,680.51h-1.06c.35-.32.71-.32,1.06,0Z"/>
      <path class="cls-1" d="m1821.43,665.5c-.06.13-.09.32-.19.38-.09.06-.33.03-.4-.05-.27-.34-.16-.57.27-.59.1,0,.21.17.31.26Z"/>
      <path class="cls-1" d="m1728.48,628.37c-1.06-.36-2.13-.71-3.19-1.07,0-2.42.09-4.77,3.19-5.32.64.08.99.43,1.05,1.08.07,1.85-.19,3.65-1.05,5.32Z"/>
      <path class="cls-1" d="m1822.15,453.81c.36-.35.71-.69,1.07-1.04,2.88,2.24,3.84,4.79,2.82,7.39-.27.68-.71,1.21-1.45,1.3-.78.1-1.29-.43-1.63-1.05-1.13-2.09-.76-4.38-.82-6.61Z"/>
      <path class="cls-1" d="m1831.74,453.8c-.01.71-.02,1.41-.03,2.12-.64.98-1.36,1.82-2.71,1.56-.15-.17-.31-.33-.46-.5,0-2.12,0-4.24,0-6.36,0,0,0,0,0,0,1.59-1.25,2.4-.15,3.18,1.05h0c.62.7.64,1.41.02,2.12Z"/>
      <path class="cls-1" d="m1136.68,900.83c-.35,0-.69,0-1.04.02-1.88,1.45-3.22.77-4.25-1.08,1.68-3.4,1.78-3.44,5.33-2.12.72,1.07.76,2.13-.03,3.19Z"/>
      <path class="cls-1" d="m1117.6,864.23c.98.11,1.56.68,1.61,1.62.07,1.33-.83,1.81-1.97,1.67-.92-.11-1.53-.75-1.36-1.77.16-.91.7-1.51,1.71-1.52Z"/>
      <path class="cls-1" d="m1806.95,632.49c-1.21-.06-2.34-.32-2.36-1.61-.02-1.76,1.29-2.31,2.82-2.3,1.1.01,2.2.48,2.27,1.67.11,1.88-1.4,2.09-2.73,2.24Z"/>
      <path class="cls-1" d="m1683.68,647.09c1.66.32,2.09,1.38,1.95,2.7-.1.94-.67,1.6-1.72,1.49-1.22-.13-1.84-.97-1.89-2.09-.04-1.14.57-1.93,1.65-2.1Z"/>
      <path class="cls-1" d="m1740.14,576.19c.37-.7.74-1.4,1.12-2.1.7-.65,1.41-.66,2.12-.02.36.35.72.71,1.07,1.06-1.55,3.5-2.25,3.67-4.31,1.05Z"/>
      <path class="cls-1" d="m1351.7,928.51c.78-.63,1.85-.89,2.15.15.77,2.61,1.22,5.3,1.84,8.14q-5.19-2.09-3.99-6.17c-.66-.71-.66-1.41,0-2.12Z"/>
      <path class="cls-1" d="m1363.04,930.28c1.64-1.05,3.14-.72,5.34.08-2.4,1.21-3.8-.1-5.34-.08Z"/>
      <path class="cls-1" d="m1291.03,927.44c.89-4.44,4.11-1.89,6.4-2.12.55,2.66-1.91,2.32-3.17,3.17,0,0-.04.02-.04.02-1.18-.02-2.29-.22-3.19-1.07Z"/>
      <path class="cls-1" d="m1293.15,843.39c2.2,3.28,2.07,3.8-1.13,4.18-1.01.12-2.06.02-3.08.03h0q-.51-4.05,4.23-4.22h0Z"/>
      <path class="cls-1" d="m951.51,912.52c-.35-1.05-.7-2.11-1.05-3.16,0,0,0,0,0,0,.36-.35.72-.7,1.07-1.07,2.11-1.14,2.17-3.51,3.19-5.31.35-.36.71-.36,1.06,0h0c.36.35.71.71,1.07,1.06h0c.74,1.07.75,2.13,0,3.19h0c-.35.36-.71.71-1.07,1.06h0c-.36.34-.68.73-1.05,1.06,0,.71-.01,1.41-.02,2.12-.35.36-.71.71-1.06,1.07-.71,0-1.42-.01-2.13-.02Z"/>
      <path class="cls-1" d="m1309.12,912.54c.36,0,.71,0,1.07,0,1.59,2.01-.09,6.21,4.26,6.39-1.73,3.26-4.72.3-6.91,1.38,0,1.1,1.18,1.11,1.61,1.8-.14.27-.28.54-.42.81-3.35,2.37-6.77,1.96-10.23.28.13-2.12-1.08-3.7-2.13-5.34,1.95-2.84,3.68-5.66,7.95-2.93,2.12,1.35,3.07-1.79,4.81-2.38Z"/>
      <path class="cls-1" d="m1314.32,919.21c1.02-3.51,3.37-5.36,6.25-6.72-1.22,2.91-3.2,5.11-6.25,6.72Z"/>
      <path class="cls-1" d="m1416.62,878.48c1.08.37,2.55.39,2.27,2.12-.05.32-.75.77-1.14.76-1.85-.05-2.05-1.47-2.19-2.88.35,0,.71,0,1.06,0Z"/>
      <path class="cls-1" d="m1430.46,866.77c0,1.42,0,2.84,0,4.26-1.77,0-3.55,0-5.32,0,.11-2.13,2.75-2.37,3.2-4.26h0c.35-.36.71-.36,1.06,0,.35,0,.71,0,1.06,0Z"/>
      <path class="cls-1" d="m1309.15,922.1c1.17.03,2.28.24,3.18,1.07,0,0-.02.03-.02.03-1.46.83-2.8,1.29-3.18-1.07l.02-.02Z"/>
      <path class="cls-1" d="m1419.82,867.84c-.02,1.17-.22,2.29-1.06,3.19,0-1.06,0-2.12,0-3.18.18-.16.35-.32.53-.48.18.16.36.31.53.47Z"/>
      <path class="cls-1" d="m1421.95,867.84h-2.13c-.3-.24-.4-.47-.3-.71.1-.24.2-.35.3-.35.71.35,1.42.71,2.13,1.06Z"/>
      <path class="cls-1" d="m1616.72,680.5c-5.29,1.56-5.49,1.46-6.37-3.18,1.61-.82,3.32-1.18,5.12-1.06,1.52.11,3.68-.52,4.25,1.24.68,2.12-2.19,1.75-3,3Z"/>
      <path class="cls-1" d="m1422.85,887.34c.89.1,1.84.28,2.11,1.23.24.83-.47,1.22-1.2,1.29-.94.09-1.79-.23-2.05-1.21-.23-.84.36-1.22,1.14-1.31Z"/>
      <path class="cls-1" d="m1435.79,889.13c-.35.35-.71.71-1.06,1.06-.13-.31-.29-.61-.4-.93-.25-.78-.81-2.01.15-2.22,1.49-.33,1.08,1.23,1.31,2.09Z"/>
      <path class="cls-1" d="m1246.56,826.36c-.66-.05-1.36-.05-2.05-.18-1.36-.25-2.35-.94-1.98-2.49.3-1.26,1.38-1.47,2.49-1.34.69.08,1.39.24,2.04.48,1.23.45,3.43.07,3.34,1.83-.11,2.15-2.35,1.44-3.84,1.7Z"/>
      <path class="cls-1" d="m1403.83,886.99c0-.71,0-1.41,0-2.12.75.71.75,1.41,0,2.12Z"/>
      <path class="cls-1" d="m1423.02,869.96c.71.36,1.42.71,2.13,1.07-1.37.97-1.83.1-2.13-1.07Z"/>
      <path class="cls-1" d="m1343.19,788c.43-1.86-1.98-4.32.61-5.55,2.04-.96,2.44,1.93,3.86,2.69.6.32,1.27.49,1.9.73,1.49-1.81,3.3-2.01,5.35-1.09.08.33.25.95.24.95-3.9,1.19-7.45,4.34-11.97,2.27,0,0,0,0,0,0Z"/>
      <path class="cls-1" d="m1354.92,784.79c-1.58,1.34-3.5,1.04-5.35,1.09.11-1.62.19-3.35,2.15-3.78,2.06-.45,2.76,1.03,3.19,2.69Z"/>
      <path class="cls-1" d="m260.59,692.87c1.78-1.02,3.01-2.94,5.27-3.17.75,1.3,1.13,2.7,1.07,4.21,0,0,.03,0,.03,0-.37.35-.69.75-1.07,1.08v-.02c-4.07,1.89-4.81,1.59-5.29-2.1Z"/>
      <path class="cls-1" d="m427.67,788.65c-1.89,1.2-3.71,2.88-6.15,1.42-1.32-.79-2.85-1.75-2.73-3.51.14-2.12,2.03-1.99,3.56-2.17.59-.3,1.17-.81,1.79-.86,2.8-.24,3.74-1.87,3.57-4.44,1.66-1.75,3.02-2.21,4.26.54,1.84,4.07,1.85,4.32-2.15,6.9-.38.33-.7.73-1.07,1.07h0c-.34.37-.74.69-1.07,1.06h0Z"/>
      <path class="cls-1" d="m197.8,801.39c-.72-1.46-1.17-2.97-1.01-4.61.08-.88.17-1.85,1.18-2.18,1-.32,1.66.32,2.21,1.05.64.85,1.23,1.73,1.85,2.6-.55,2.2-2.28,2.82-4.23,3.15Z"/>
      <path class="cls-1" d="m200.98,821.66c-4.58,1.2-5.2.74-4.26-3.2,2.2.03,3.9.73,4.26,3.2Z"/>
      <path class="cls-1" d="m161.54,568.38c-.33,1.7-1.09,3.02-3.06,2.95-1.89-.07-2.1-1.51-2.19-2.98.04-.18.09-.35.13-.53.33-.15.65-.32.96-.51l-.02.02c1.83-1.37,3.21-.92,4.2,1.05h-.02Z"/>
      <path class="cls-1" d="m205.24,835.49c1.51-.02,2.9.38,4.23,1.06.79,1.06.75,2.12.02,3.19,0,0,0,0,0,0-4.8,1.13-5.42.51-4.25-4.26Z"/>
      <path class="cls-1" d="m157.56,861.5c-1.28-.06-1.95-.78-1.97-1.98-.02-1.44.87-2.25,2.22-2.45,1.14-.17,2.21.18,2.23,1.52.03,1.59-1,2.5-2.49,2.91Z"/>
      <path class="cls-1" d="m167.57,883.13c-.1.91-.53,1.62-1.56,1.51-.82-.08-1.02-.8-.93-1.52.09-.72.5-1.32,1.26-1.34.77-.02,1.16.54,1.23,1.34Z"/>
      <path class="cls-1" d="m1380.28,467.25c1.61.51,2.13,1.71,2.05,3.28-.05,1.1-.26,2.16-1.39,2.62-.43.17-1.14.17-1.49-.07-1.17-.82-.5-1.85-.16-2.83.35-1,.66-2.01.99-3.01,0,0,0,0,0,0Z"/>
      <path class="cls-1" d="m1366.4,514.09c-.1,1.33.4,3.05-1.26,3.62-2.2.75-2.73-1.62-4.03-2.58,0,0,0,0,0,0,.44-2.65,1.88-3.3,4.23-2.1.64.06,1,.42,1.05,1.06Z"/>
      <path class="cls-1" d="m430.87,746.09c.74,4.14,4.49,4.79,7.42,6.39,1.59,3.38.63,4.86-3.16,4.23h.01c-.58-.61-1.57-.41-2.14-1.06h0c-.38-.34-.7-.73-1.07-1.09,0-.35-.01-.7-.03-1.04-.35-.35-.69-.71-1.04-1.07h.01c-.56-.87-1.28-1.58-2.14-2.16-.36-.34-.72-.68-1.08-1.02-.34-.36-.7-.7-1.05-1.04h-.03c-.6-.73-.6-1.44.03-2.15h0c1.42-.77,2.84-.78,4.26,0Z"/>
      <path class="cls-1" d="m371.27,743.96c.02-.34.03-.69.04-1.03,1.85-.12,3.61.16,5.25,1.06-.37,2.44-2.02,3.17-4.22,3.17-.35-.36-.71-.71-1.06-1.07,0-.71,0-1.42,0-2.12Z"/>
      <path class="cls-1" d="m426.52,802.54c-.1,1.3-.16,2.75-1.91,2.58-1.79-.17-2.1-1.69-2.13-3.17-.02-1.07.07-2.46,1.32-2.57,2.09-.17,2.45,1.57,2.72,3.16Z"/>
      <path class="cls-1" d="m587.37,830.13c.15-1.02,0-2.4,1.34-2.54,1.84-.2,1.61,1.43,1.81,2.59h0c-.54.56-1.18.86-1.97.78-.48-.15-.87-.43-1.18-.82Z"/>
      <path class="cls-1" d="m258.03,860.87c-.11,1.15-.77,1.96-1.73,2.45-.95.48-1.73,0-2.1-.89-.65-1.54-2.19-2.21-3.15-3.42-1.01-1.28-.49-2.38.92-2.84,1.85-.6,6.11,2.81,6.06,4.71Z"/>
      <path class="cls-1" d="m431.93,850.38c-2.28,2.78-3.32,3.03-4.46,1.09-1.1-1.88-.4-2.55,3.41-3.21.35.71.7,1.42,1.05,2.13Z"/>
      <path class="cls-1" d="m494.18,840.48c.28-.94.45-2.13,1.82-1.95.93.12,1.34,1.03,1.38,1.9.05,1.15-.5,2.03-1.79,1.89-.95-.1-1.4-.83-1.41-1.84Z"/>
      <path class="cls-1" d="m560.38,867.14c-.17.92-.61,1.7-1.64,1.53-1.09-.18-1.1-1.18-1.05-2.03.05-.93.39-1.77,1.53-1.51.98.22,1.21,1.09,1.17,2.02Z"/>
      <path class="cls-1" d="m1400.66,513.8c-1.44-.1-2.12-.95-2.07-2.43.07-2.13,1.84-4.42,3.29-4.15,1.33.26,2.16,1.18,2.3,2.56.19,1.89-1.64,3.98-3.52,4.01Z"/>
      <path class="cls-1" d="m1334.48,647.09c.08-2.08,1.21-3.02,3.23-3.28,2.01-.27,3.3-1.26,2.21-3.52-.92-1.91.97-3.2.96-4.88,1.89,6.96,1.66,7.45-4.33,10.09-.78.34-1.38,1.06-2.07,1.6Z"/>
      <path class="cls-1" d="m1071.64,811c3.44-2.62,7.54-1.26,9.53,3.17-.86.67-1.84,1.02-2.93,1.06-.82-.14-1.44-.57-1.84-1.3-.41-2.26-2.79-.62-3.72-1.88-.35-.35-.69-.7-1.04-1.05Z"/>
      <path class="cls-1" d="m624.65,806.72c-.19-2.32,1.27-3.4,3.12-4.2.98.64,2.58.85,2.38,2.44-.2,1.55-1.63,1.64-2.86,1.74-.87.07-1.76.02-2.64.02Z"/>
      <path class="cls-1" d="m652.26,828.04c1.22.12,2.51.25,2.86,1.7.31,1.29-.06,2.56-1.45,2.87-1.51.33-2.22-.75-2.15-2.13.04-.82.48-1.62.75-2.43Z"/>
      <path class="cls-1" d="m678.85,636.45c.67-.54,1.27-1.19,2.02-1.58.67-.35,1.38-.04,1.6.74.51,1.86-1.13,3.67-3.61,4.05,0,0,0,0,0,0-.74-1.07-.72-2.14,0-3.21,0,0,0,0,0,0Z"/>
      <path class="cls-1" d="m801.22,1022.12c-.29.1-.62.33-.84.25-.22-.08-.32-.48-.48-.74.28-.1.62-.34.84-.26.22.08.33.48.48.74Z"/>
      <path class="cls-1" d="m727.83,880.21c-.34-.02-.69-.03-1.03-.04.34-1.06.68-2.12,1.01-3.17,1.42-.35,2.85-.7,4.27-1.05.52-.73,1.18-1.19,2.13-1.05,2.08-.08,4.1-.02,5.3,2.1,0,0,.01,0,.01,0-.38.33-.7.73-1.07,1.07h0c-1.21,1.18-3.04-.1-4.26,1.06h0c-.35.36-.71.72-1.07,1.07h0c-.56.65-1.58.41-2.14,1.06h-.52s-.52,0-.52,0c-.56-.67-1.57-.38-2.13-1.04Z"/>
      <path class="cls-1" d="m1180.18,692.88c.84-.26,1.68-.51,2.51-.77,1.41-.44,3-1.85,4.1.26.61,1.18-.4,1.94-1.45,2.35-2.35.92-4.12.27-5.17-1.84,0,0,0,0,0,0Z"/>
      <path class="cls-1" d="m1114.22,764.22c2.08.02,4.2-.33,6.82.65-2.08,2.21-4.1,3.48-6.83,3.54,0,0,0,.02,0,.02-.83-1.41-.83-2.83,0-4.24v.02Z"/>
      <path class="cls-1" d="m1200.02,737.34c-1.05-.13-1.93-.52-1.79-1.56.19-1.51,1.25-2.51,2.72-2.75,1.08-.17,1.43.77,1.45,1.7.03,1.66-.72,2.62-2.37,2.61Z"/>
      <path class="cls-1" d="m1273.83,840.81c-1.06-.35-2.13-.71-3.19-1.06,2.06-1.8,2.12-1.78,3.19,1.06Z"/>
      <path class="cls-1" d="m1270.64,841.88c-.35.32-.71.32-1.06,0,.35,0,.71,0,1.06,0Z"/>
      <path class="cls-1" d="m1009.88,861.03c1.4,3.53-1.22,3.04-3.2,3.2,0-2.14,1.08-3.18,3.2-3.2Z"/>
      <path class="cls-1" d="m703.41,611.94c-.01-.33-.01-.66-.01-.98,3.51-1.31,7.02.57,10.54,0-.52,1.58-1.75,2.05-3.25,2.06-2.08.01-4.17,0-6.25,0-.34-.36-.68-.72-1.02-1.08Z"/>
      <path class="cls-1" d="m791.63,684.31c-.33.37-.66.75-.99,1.12-.26.23-.5.51-.79.69-1.18.71-2.43,1.86-3.75.57-1.09-1.06-.12-2.29.26-3.41.7-2.12,1.25-4.24,0-6.36,0,0,0,0,0,0,1.69-3.07,6.23-3.1,9.51-.07-5.2.34-3.87,4.38-4.22,7.46Z"/>
      <path class="cls-1" d="m893.84,719.5c-.41,1.65-1.65,2.05-3.13,2.07,0,0-.02,0-.02,0-1.27-.89-3.04-1.7-2.42-3.56.58-1.75,2.1-1.42,3.44-.63.37.34.73.68,1.1,1.02.32.38.68.73,1.04,1.08h-.01Z"/>
      <path class="cls-1" d="m819.36,1038.78c-.71.35-1.42.71-2.13,1.06-.85-1.04-1.37-2.41,0-3.07,1.69-.83,1.8.91,2.13,2.01Z"/>
      <path class="cls-1" d="m802.33,1039.84h-1.06c-.82-5.19,3.24-.61,4.26-2.13-.71,1.25-1.77,1.95-3.19,2.13Z"/>
      <path class="cls-1" d="m822.55,1043.04c-.36,1-.88,2.12-2.1,1.5-1.21-.61-.67-1.69-.03-2.57.71.35,1.42.71,2.13,1.06Z"/>
      <path class="cls-1" d="m811.71,1039.2c-.07-.02.43.27.2.9-.2.54-.79.65-1.33.56-.56-.1-1.06-.42-.83-1.05.2-.52.77-.65,1.96-.41Z"/>
      <path class="cls-1" d="m815.1,1046.23c-.85-.9-1.05-2.02-1.07-3.19.71-.58,1.42-.29,2.13,0,.39,1.31,1.59,2.9-1.06,3.19Z"/>
      <path class="cls-1" d="m787.44,1039.84c0-.35,0-.71,0-1.06.4-.3,1.04-.69,1.24-.12.31.9-.63.97-1.23,1.18Z"/>
      <path class="cls-1" d="m800.2,1045.17c.35-.71.71-1.42,1.06-2.13l1.07,2.13h-2.13Z"/>
      <path class="cls-1" d="m807.64,1045.17c-.35.71-.7,1.42-1.06,2.13-.97-1.36-.12-1.83,1.06-2.13Z"/>
      <path class="cls-1" d="m941.74,737.59c-.03,1.25,1.16,2.82-.71,3.59-1.12.46-1.91-.44-2.56-1.24-.57-.7-.95-1.62-.39-2.36,1.14-1.51,2.44-.45,3.67.02,0,0,0,0,0,0Z"/>
      <path class="cls-1" d="m1177.99,633.23c-1.88,1.33-3.17,4.41-6.27,2.13.02-1.41.25-2.75,1.31-3.81,2.05-2.05,3.65-1.52,4.97,1.68Z"/>
      <path class="cls-1" d="m1145.05,682.23c-1.76-.09-3.92.02-4.01-2.35-.1-2.6-1.53-5.12-.64-7.72.36-1.06,1.39-.68,2.23-.25,4.33,2.22,5.28,6.23,2.42,10.31,0,0,0,0,0,0Z"/>
      <path class="cls-1" d="m1241.89,658.83c.35.35.7.71,1.06,1.06,0,.7.01,1.4.02,2.1-2.76,1.74-5.62,4.17-7.41-1.03.35-.35.7-.71,1.05-1.06,1.76-.36,3.52-.71,5.28-1.07Z"/>
      <path class="cls-1" d="m1121.35,819.35c-.9-.11-1.86-.37-1.85-1.41,0-1.07.96-1.36,1.88-1.26.95.1,1.68.61,1.54,1.67-.11.81-.83,1.01-1.57,1Z"/>
      <path class="cls-1" d="m1233.39,821.65c-1.03.37-2.04.45-2.81-.48-.94-1.15-2.13-1.66-3.58-1.66-.05-3.72,3.35-3.11,5.34-4.26,1.48,1.95.93,4.23,1.05,6.39Z"/>
      <path class="cls-1" d="m1321.98,745.75c.01-.14-.01-.39.05-.41.14-.05.32,0,.49,0-.01.14.01.39-.05.41-.14.05-.32,0-.49,0Z"/>
      <path class="cls-1" d="m1323.86,742.89c.36-.35.71-.7,1.07-1.05-.36.35-.71.7-1.07,1.05Z"/>
      <path class="cls-1" d="m1324.93,741.83c.35-.35.7-.69,1.05-1.04-.35.35-.7.69-1.05,1.04Z"/>
      <path class="cls-1" d="m1209.96,837.59c1.74-1.7,3.31-3.64,5.89-4.15.91-.18,1.38-.8,1.95-1.52,2.18-2.8,4.05-3.32,5.94-1.88,2.03,1.55,2.4,4.3.88,6.93-.16.28-.53.44-.8.66,0,0-.05-.04-.05-.04-3.24-2.06-6.46-.66-9.58.27-1.56.46-2.9,1.39-4.23-.26Z"/>
      <path class="cls-1" d="m1224.86,819.51c.71,0,1.42,0,2.13,0,.21.76.85,2.21-.03,2.13-2.14-.19-4.35-.8-6.27-1.76-1.55-.78-.95-2.33-.08-3.55,0,1.18.2,2.29,1.1,3.16,1.05-.82,2.09-.89,3.14.01Z"/>
      <path class="cls-1" d="m1199.29,847.58c-.1-.09-.3-.19-.3-.28,0-.42.23-.55.57-.33.09.06.15.3.1.4-.05.1-.24.14-.37.2Z"/>
      <path class="cls-1" d="m1354.72,745.02h-1.06c-.48-.79-1.89-1.45-1.07-2.45.94-1.15,2.14,0,3.2.32h0c-.35.71-.71,1.42-1.06,2.13Z"/>
      <path class="cls-1" d="m941.64,1008.04c2.59-.87,4.37-1.32,7.08-.47-2.48,1.61-4.25,2.23-7.08.47Z"/>
      <path class="cls-1" d="m936.43,1011.11c.2-.87-.24-2.31,1.47-1.91.66.15,1.25.91,1.02,1.57-.53,1.57-1.61.52-2.5.33,0,0,0,0,0,0Z"/>
      <path class="cls-1" d="m953.9,1005.56c-.16.51-.41,1.11-.97,1.04-.82-.1-1.02-.85-.99-1.57.02-.58.43-.99,1.01-.95.88.07,1.1.69.95,1.48Z"/>
      <path class="cls-1" d="m968.32,998.14c.22.18.6.34.64.56.11.54-.17.97-.77.85-.2-.04-.44-.5-.42-.75.02-.23.35-.44.55-.66Z"/>
      <path class="cls-1" d="m932.33,1010.48c-.14-.25-.27-.5-.41-.75.28-.13.57-.37.83-.34.16.02.28.45.41.7-.28.13-.56.26-.84.39Z"/>
      <path class="cls-1" d="m944.26,1011.67c.26-.14.5-.32.77-.41.12-.04.37.04.45.14.22.32.07.61-.37.61-.28,0-.57-.22-.85-.35Z"/>
      <path class="cls-1" d="m1037.55,970.66c0-.35-.01-.71-.02-1.06,1.1-.43,1.95-.34,2.14,1.06h-2.13Z"/>
      <path class="cls-1" d="m1097.15,916.38c-2.07,1.03-2.9,2.98-3.77,4.94-.36.8-1.02,1.56-2.01,1.5-1.04-.07-1.33-.98-1.59-1.85-.35-1.18-.76-2.35-1.14-3.53,2.24-.54,2.3-2.71,3.19-4.26-.36-1.3.03-2.35,1.06-3.19.46-1.59,1.42-1.94,2.68-.89,1.03.85,2.48,1.82.94,3.35-1.71,1.7-.4,2.75.63,3.93Z"/>
      <path class="cls-1" d="m1099.28,920.63c.13,1.32.27,2.64.41,4.1q-2.41-2.01-1.48-5.16c.35.35.71.71,1.06,1.06Z"/>
      <path class="cls-1" d="m1085.45,911.05c1.41,0,2.83,0,4.24,0,.58.71.65,1.42.01,2.14-.4,1.15-.94,1.87-2.03.6-.76-.89-1.48-1.82-2.22-2.74Z"/>
      <path class="cls-1" d="m1019.91,938.89c-.14.28-.28.55-.42.83-.24-.15-.67-.28-.69-.45-.02-.26.23-.55.37-.83.25.15.49.3.74.45Z"/>
      <path class="cls-1" d="m1090.77,910c-.36.35-.72.7-1.08,1.06,0-1.42,0-2.83,0-4.25.85.9,1.05,2.02,1.07,3.2Z"/>
      <path class="cls-1" d="m1016.27,944.05c0-1.06,0-2.13-.01-3.19,1.01,1.06,1.01,2.13.01,3.19Z"/>
      <path class="cls-1" d="m1098.22,917.44c-.35-.35-.71-.71-1.06-1.06.35.35.71.71,1.06,1.06Z"/>
      <path class="cls-1" d="m1015.19,945.12l1.07-1.06c-.36.35-.71.71-1.07,1.06Z"/>
      <path class="cls-1" d="m976.89,969.6c-.36.35-.71.71-1.07,1.06.36-.35.71-.71,1.07-1.06Z"/>
      <path class="cls-1" d="m1131.32,882.96c-1.45-.44-3.37-.9-1.96-2.31,1.93-1.93,1.73-4.07,1.91-6.3.1-1.26.32-2.59,1.71-2.99,1.6-.47,2.75.45,3.39,1.82,1.11,2.37,3.4,4.1,3.74,6.89.12,1.02-.4,2.21-1.19,1.77-3-1.66-5.37-.09-7.6,1.12Z"/>
      <path class="cls-1" d="m1129.11,877c0-.71-.02-1.42-.03-2.13.73.7.74,1.41.03,2.13Z"/>
      <path class="cls-1" d="m1159.95,901.48c-.35,0-.71,0-1.06,0-1.36-.06-2.07-.77-2.13-2.13q-1.88-3.18,2.63-6.7c-2.12,3.78,2.08,5.75.57,8.83Z"/>
      <path class="cls-1" d="m1104.44,921.8c-.16.28-.29.86-.64,1.04-.55.29-.98-.19-.95-.72.02-.43.26-1.04.59-1.23.55-.31.86.17,1,.91Z"/>
      <path class="cls-1" d="m1153.56,904.67l-1.06,1.07c-.32-.34-.75-.79-.27-1.14.27-.2.88.04,1.33.08Z"/>
      <path class="cls-1" d="m1108.04,929.4c.09.05.26.12.25.14-.04.13-.1.27-.19.38-.09.11-.2.2-.31.3.08-.27.16-.55.25-.82Z"/>
      <path class="cls-1" d="m1166.33,899.35c.08.24.18.48.21.73.01.1-.14.22-.21.34,0,0,0,0,0,0v-1.07Z"/>
      <path class="cls-1" d="m1085.44,917.45c.35,0,.71,0,1.06,0-.36.36-.72.72-1.08,1.09,0,0,.01-.02.01-.02-.72-.36-.72-.71,0-1.07h0Z"/>
      <path class="cls-1" d="m1053.52,954.69c.92.5,1.62,1.22,2.12,2.13.36.34,1,.42,1.06,1.07-3.65,1.9-3.5-1.24-4.25-3.19.35-.43.71-.45,1.07,0Z"/>
      <path class="cls-1" d="m1017.32,950.46c-.71-.36-1.42-.72-2.13-1.08.71.36,1.42.72,2.13,1.08Z"/>
      <path class="cls-1" d="m1018.38,951.52c-.36-.36-.71-.72-1.07-1.08.36.36.71.72,1.07,1.08Z"/>
      <path class="cls-1" d="m1019.45,952.58c-.36-.36-.72-.72-1.07-1.07.36.36.72.72,1.07,1.07Z"/>
      <path class="cls-1" d="m724.18,65.98c-1.89,1.2-3.71,2.88-6.15,1.42-1.32-.79-2.85-1.75-2.73-3.51.14-2.12,2.03-1.99,3.56-2.17.59-.3,1.17-.81,1.79-.86,2.8-.24,3.74-1.87,3.57-4.44,1.66-1.75,3.02-2.21,4.26.54,1.84,4.07,1.85,4.32-2.15,6.9-.38.33-.7.73-1.07,1.07h0c-.34.37-.74.69-1.07,1.06h0Z"/>
      <path class="cls-1" d="m494.31,78.72c-.72-1.46-1.17-2.97-1.01-4.61.08-.88.17-1.85,1.18-2.18,1-.32,1.66.32,2.21,1.05.64.85,1.23,1.73,1.85,2.6-.55,2.2-2.28,2.82-4.23,3.15Z"/>
      <path class="cls-1" d="m497.49,98.99c-4.58,1.2-5.2.74-4.26-3.2,2.2.03,3.9.73,4.26,3.2Z"/>
      <path class="cls-1" d="m501.75,112.83c1.51-.02,2.9.38,4.23,1.06.79,1.06.75,2.12.02,3.19,0,0,0,0,0,0-4.8,1.13-5.42.51-4.25-4.26Z"/>
      <path class="cls-1" d="m454.08,138.84c-1.28-.06-1.95-.78-1.97-1.98-.02-1.44.87-2.25,2.22-2.45,1.14-.17,2.21.18,2.23,1.52.03,1.59-1,2.5-2.49,2.91Z"/>
      <path class="cls-1" d="m464.08,160.46c-.1.91-.53,1.62-1.56,1.51-.82-.08-1.02-.8-.93-1.52.09-.72.5-1.32,1.26-1.34.77-.02,1.16.54,1.23,1.34Z"/>
      <path class="cls-1" d="m727.39,23.43c.74,4.14,4.49,4.79,7.42,6.39,1.59,3.38.63,4.86-3.16,4.23h.01c-.58-.61-1.57-.41-2.14-1.06h0c-.38-.34-.7-.73-1.07-1.09,0-.35-.01-.7-.03-1.04-.35-.35-.69-.71-1.04-1.07h.01c-.56-.87-1.28-1.58-2.14-2.16-.36-.34-.72-.68-1.08-1.02-.34-.36-.7-.7-1.05-1.04h-.03c-.6-.73-.6-1.44.03-2.15h0c1.42-.77,2.84-.78,4.26,0Z"/>
      <path class="cls-1" d="m667.78,21.29c.02-.34.03-.69.04-1.03,1.85-.12,3.61.16,5.25,1.06-.37,2.44-2.02,3.17-4.22,3.17-.35-.36-.71-.71-1.06-1.07,0-.71,0-1.42,0-2.12Z"/>
      <path class="cls-1" d="m723.03,79.87c-.1,1.3-.16,2.75-1.91,2.58-1.79-.17-2.1-1.69-2.13-3.17-.02-1.07.07-2.46,1.32-2.57,2.09-.17,2.45,1.57,2.72,3.16Z"/>
      <path class="cls-1" d="m883.88,107.46c.15-1.02,0-2.4,1.34-2.54,1.84-.2,1.61,1.43,1.81,2.59h0c-.54.56-1.18.86-1.97.78-.48-.15-.87-.43-1.18-.82Z"/>
      <path class="cls-1" d="m554.55,138.2c-.11,1.15-.77,1.96-1.73,2.45-.95.48-1.73,0-2.1-.89-.65-1.54-2.19-2.21-3.15-3.42-1.01-1.28-.49-2.38.92-2.84,1.85-.6,6.11,2.81,6.06,4.71Z"/>
      <path class="cls-1" d="m728.44,127.71c-2.28,2.78-3.32,3.03-4.46,1.09-1.1-1.88-.4-2.55,3.41-3.21.35.71.7,1.42,1.05,2.13Z"/>
      <path class="cls-1" d="m790.7,117.81c.28-.94.45-2.13,1.82-1.95.93.12,1.34,1.03,1.38,1.9.05,1.15-.5,2.03-1.79,1.89-.95-.1-1.4-.83-1.41-1.84Z"/>
      <path class="cls-1" d="m856.89,144.47c-.17.92-.61,1.7-1.64,1.53-1.09-.18-1.1-1.18-1.05-2.03.05-.93.39-1.77,1.53-1.51.98.22,1.21,1.09,1.17,2.02Z"/>
      <path class="cls-1" d="m1368.16,88.33c3.44-2.62,7.54-1.26,9.53,3.17-.86.67-1.84,1.02-2.93,1.06-.82-.14-1.44-.57-1.84-1.3-.41-2.26-2.79-.62-3.72-1.88-.35-.35-.69-.7-1.04-1.05Z"/>
      <path class="cls-1" d="m921.17,84.05c-.19-2.32,1.27-3.4,3.12-4.2.98.64,2.58.85,2.38,2.44-.2,1.55-1.63,1.64-2.86,1.74-.87.07-1.76.02-2.64.02Z"/>
      <path class="cls-1" d="m948.77,105.37c1.22.12,2.51.25,2.86,1.7.31,1.29-.06,2.56-1.45,2.87-1.51.33-2.22-.75-2.15-2.13.04-.82.48-1.62.75-2.43Z"/>
      <path class="cls-1" d="m1097.74,299.45c-.29.1-.62.33-.84.25-.22-.08-.32-.48-.48-.74.28-.1.62-.34.84-.26.22.08.33.48.48.74Z"/>
      <path class="cls-1" d="m1024.35,157.54c-.34-.02-.69-.03-1.03-.04.34-1.06.68-2.12,1.01-3.17,1.42-.35,2.85-.7,4.27-1.05.52-.73,1.18-1.19,2.13-1.05,2.08-.08,4.1-.02,5.3,2.1,0,0,.01,0,.01,0-.38.33-.7.73-1.07,1.07h0c-1.21,1.18-3.04-.1-4.26,1.06h0c-.35.36-.71.72-1.07,1.07h0c-.56.65-1.58.41-2.14,1.06h-.52s-.52,0-.52,0c-.56-.67-1.57-.38-2.13-1.04Z"/>
      <path class="cls-1" d="m1410.73,41.55c2.08.02,4.2-.33,6.82.65-2.08,2.21-4.1,3.48-6.83,3.54,0,0,0,.02,0,.02-.83-1.41-.83-2.83,0-4.24v.02Z"/>
      <path class="cls-1" d="m1496.54,14.68c-1.05-.13-1.93-.52-1.79-1.56.19-1.51,1.25-2.51,2.72-2.75,1.08-.17,1.43.77,1.45,1.7.03,1.66-.72,2.62-2.37,2.61Z"/>
      <path class="cls-1" d="m1570.34,118.14c-1.06-.35-2.13-.71-3.19-1.06,2.06-1.8,2.12-1.78,3.19,1.06Z"/>
      <path class="cls-1" d="m1567.15,119.21c-.35.32-.71.32-1.06,0,.35,0,.71,0,1.06,0Z"/>
      <path class="cls-1" d="m1306.39,138.37c1.4,3.53-1.22,3.04-3.2,3.2,0-2.14,1.08-3.18,3.2-3.2Z"/>
      <path class="cls-1" d="m1115.87,316.11c-.71.35-1.42.71-2.13,1.06-.85-1.04-1.37-2.41,0-3.07,1.69-.83,1.8.91,2.13,2.01Z"/>
      <path class="cls-1" d="m1098.84,317.18h-1.06c-.82-5.19,3.24-.61,4.26-2.13-.71,1.25-1.77,1.95-3.19,2.13Z"/>
      <path class="cls-1" d="m1119.07,320.37c-.36,1-.88,2.12-2.1,1.5-1.21-.61-.67-1.69-.03-2.57.71.35,1.42.71,2.13,1.06Z"/>
      <path class="cls-1" d="m1108.22,316.53c-.07-.02.43.27.2.9-.2.54-.79.65-1.33.56-.56-.1-1.06-.42-.83-1.05.2-.52.77-.65,1.96-.41Z"/>
      <path class="cls-1" d="m1111.62,323.56c-.85-.9-1.05-2.02-1.07-3.19.71-.58,1.42-.29,2.13,0,.39,1.31,1.59,2.9-1.06,3.19Z"/>
      <path class="cls-1" d="m1083.95,317.17c0-.35,0-.71,0-1.06.4-.3,1.04-.69,1.24-.12.31.9-.63.97-1.23,1.18Z"/>
      <path class="cls-1" d="m1096.72,322.5c.35-.71.71-1.42,1.06-2.13l1.07,2.13h-2.13Z"/>
      <path class="cls-1" d="m1104.16,322.5c-.35.71-.7,1.42-1.06,2.13-.97-1.36-.12-1.83,1.06-2.13Z"/>
      <path class="cls-1" d="m1238.25,14.92c-.03,1.25,1.16,2.82-.71,3.59-1.12.46-1.91-.44-2.56-1.24-.57-.7-.95-1.62-.39-2.36,1.14-1.51,2.44-.45,3.67.02,0,0,0,0,0,0Z"/>
      <path class="cls-1" d="m1417.86,96.68c-.9-.11-1.86-.37-1.85-1.41,0-1.07.96-1.36,1.88-1.26.95.1,1.68.61,1.54,1.67-.11.81-.83,1.01-1.57,1Z"/>
      <path class="cls-1" d="m1529.9,98.99c-1.03.37-2.04.45-2.81-.48-.94-1.15-2.13-1.66-3.58-1.66-.05-3.72,3.35-3.11,5.34-4.26,1.48,1.95.93,4.23,1.05,6.39Z"/>
      <path class="cls-1" d="m1618.49,23.08c.01-.14-.01-.39.05-.41.14-.05.32,0,.49,0-.01.14.01.39-.05.41-.14.05-.32,0-.49,0Z"/>
      <path class="cls-1" d="m1620.37,20.22c.36-.35.71-.7,1.07-1.05-.36.35-.71.7-1.07,1.05Z"/>
      <path class="cls-1" d="m1621.45,19.16c.35-.35.7-.69,1.05-1.04-.35.35-.7.69-1.05,1.04Z"/>
      <path class="cls-1" d="m1506.48,114.92c1.74-1.7,3.31-3.64,5.89-4.15.91-.18,1.38-.8,1.95-1.52,2.18-2.8,4.05-3.32,5.94-1.88,2.03,1.55,2.4,4.3.88,6.93-.16.28-.53.44-.8.66,0,0-.05-.04-.05-.04-3.24-2.06-6.46-.66-9.58.27-1.56.46-2.9,1.39-4.23-.26Z"/>
      <path class="cls-1" d="m1521.37,96.84c.71,0,1.42,0,2.13,0,.21.76.85,2.21-.03,2.13-2.14-.19-4.35-.8-6.27-1.76-1.55-.78-.95-2.33-.08-3.55,0,1.18.2,2.29,1.1,3.16,1.05-.82,2.09-.89,3.14.01Z"/>
      <path class="cls-1" d="m1495.81,124.91c-.1-.09-.3-.19-.3-.28,0-.42.23-.55.57-.33.09.06.15.3.1.4-.05.1-.24.14-.37.2Z"/>
      <path class="cls-1" d="m1651.24,22.35h-1.06c-.48-.79-1.89-1.45-1.07-2.45.94-1.15,2.14,0,3.2.32h0c-.35.71-.71,1.42-1.06,2.13Z"/>
      <path class="cls-1" d="m1238.16,285.37c2.59-.87,4.37-1.32,7.08-.47-2.48,1.61-4.25,2.23-7.08.47Z"/>
      <path class="cls-1" d="m1232.95,288.45c.2-.87-.24-2.31,1.47-1.91.66.15,1.25.91,1.02,1.57-.53,1.57-1.61.52-2.5.33,0,0,0,0,0,0Z"/>
      <path class="cls-1" d="m1250.41,282.89c-.16.51-.41,1.11-.97,1.04-.82-.1-1.02-.85-.99-1.57.02-.58.43-.99,1.01-.95.88.07,1.1.69.95,1.48Z"/>
      <path class="cls-1" d="m1264.83,275.47c.22.18.6.34.64.56.11.54-.17.97-.77.85-.2-.04-.44-.5-.42-.75.02-.23.35-.44.55-.66Z"/>
      <path class="cls-1" d="m1228.84,287.81c-.14-.25-.27-.5-.41-.75.28-.13.57-.37.83-.34.16.02.28.45.41.7-.28.13-.56.26-.84.39Z"/>
      <path class="cls-1" d="m1240.78,289c.26-.14.5-.32.77-.41.12-.04.37.04.45.14.22.32.07.61-.37.61-.28,0-.57-.22-.85-.35Z"/>
      <path class="cls-1" d="m1334.06,247.99c0-.35-.01-.71-.02-1.06,1.1-.43,1.95-.34,2.14,1.06h-2.13Z"/>
      <path class="cls-1" d="m1393.67,193.71c-2.07,1.03-2.9,2.98-3.77,4.94-.36.8-1.02,1.56-2.01,1.5-1.04-.07-1.33-.98-1.59-1.85-.35-1.18-.76-2.35-1.14-3.53,2.24-.54,2.3-2.71,3.19-4.26-.36-1.3.03-2.35,1.06-3.19.46-1.59,1.42-1.94,2.68-.89,1.03.85,2.48,1.82.94,3.35-1.71,1.7-.4,2.75.63,3.93Z"/>
      <path class="cls-1" d="m1395.79,197.97c.13,1.32.27,2.64.41,4.1q-2.41-2.01-1.48-5.16c.35.35.71.71,1.06,1.06Z"/>
      <path class="cls-1" d="m1381.96,188.38c1.41,0,2.83,0,4.24,0,.58.71.65,1.42.01,2.14-.4,1.15-.94,1.87-2.03.6-.76-.89-1.48-1.82-2.22-2.74Z"/>
      <path class="cls-1" d="m1316.43,216.22c-.14.28-.28.55-.42.83-.24-.15-.67-.28-.69-.45-.02-.26.23-.55.37-.83.25.15.49.3.74.45Z"/>
      <path class="cls-1" d="m1387.29,187.33c-.36.35-.72.7-1.08,1.06,0-1.42,0-2.83,0-4.25.85.9,1.05,2.02,1.07,3.2Z"/>
      <path class="cls-1" d="m1312.78,221.38c0-1.06,0-2.13-.01-3.19,1.01,1.06,1.01,2.13.01,3.19Z"/>
      <path class="cls-1" d="m1394.73,194.78c-.35-.35-.71-.71-1.06-1.06.35.35.71.71,1.06,1.06Z"/>
      <path class="cls-1" d="m1311.71,222.45l1.07-1.06c-.36.35-.71.71-1.07,1.06Z"/>
      <path class="cls-1" d="m1273.4,246.93c-.36.35-.71.71-1.07,1.06.36-.35.71-.71,1.07-1.06Z"/>
      <path class="cls-1" d="m1427.84,160.3c-1.45-.44-3.37-.9-1.96-2.31,1.93-1.93,1.73-4.07,1.91-6.3.1-1.26.32-2.59,1.71-2.99,1.6-.47,2.75.45,3.39,1.82,1.11,2.37,3.4,4.1,3.74,6.89.12,1.02-.4,2.21-1.19,1.77-3-1.66-5.37-.09-7.6,1.12Z"/>
      <path class="cls-1" d="m1425.62,154.33c0-.71-.02-1.42-.03-2.13.73.7.74,1.41.03,2.13Z"/>
      <path class="cls-1" d="m1456.46,178.81c-.35,0-.71,0-1.06,0-1.36-.06-2.07-.77-2.13-2.13q-1.88-3.18,2.63-6.7c-2.12,3.78,2.08,5.75.57,8.83Z"/>
      <path class="cls-1" d="m1400.95,199.13c-.16.28-.29.86-.64,1.04-.55.29-.98-.19-.95-.72.02-.43.26-1.04.59-1.23.55-.31.86.17,1,.91Z"/>
      <path class="cls-1" d="m1450.07,182l-1.06,1.07c-.32-.34-.75-.79-.27-1.14.27-.2.88.04,1.33.08Z"/>
      <path class="cls-1" d="m1404.56,206.73c.09.05.26.12.25.14-.04.13-.1.27-.19.38-.09.11-.2.2-.31.3.08-.27.16-.55.25-.82Z"/>
      <path class="cls-1" d="m1462.85,176.68c.08.24.18.48.21.73.01.1-.14.22-.21.34,0,0,0,0,0,0v-1.07Z"/>
      <path class="cls-1" d="m1381.96,194.78c.35,0,.71,0,1.06,0-.36.36-.72.72-1.08,1.09,0,0,.01-.02.01-.02-.72-.36-.72-.71,0-1.07h0Z"/>
      <path class="cls-1" d="m1350.04,232.02c.92.5,1.62,1.22,2.12,2.13.36.34,1,.42,1.06,1.07-3.65,1.9-3.5-1.24-4.25-3.19.35-.43.71-.45,1.07,0Z"/>
      <path class="cls-1" d="m1313.84,227.79c-.71-.36-1.42-.72-2.13-1.08.71.36,1.42.72,2.13,1.08Z"/>
      <path class="cls-1" d="m1314.9,228.85c-.36-.36-.71-.72-1.07-1.08.36.36.71.72,1.07,1.08Z"/>
      <path class="cls-1" d="m1315.96,229.92c-.36-.36-.72-.72-1.07-1.07.36.36.72.72,1.07,1.07Z"/>
    </g>
  </g>
</svg>