<?xml version="1.0" encoding="UTF-8"?>
<svg id="Layer_2" data-name="Layer 2" xmlns="http://www.w3.org/2000/svg" viewBox="0 0 554.46 401.38">
  <defs>
    <style>
      .cls-1, .cls-2 {
        fill: #89b0c5;
      }

      .cls-3, .cls-4, .cls-5, .cls-6, .cls-7, .cls-8, .cls-9, .cls-2 {
        stroke-miterlimit: 10;
      }

      .cls-3, .cls-4, .cls-5, .cls-6, .cls-8, .cls-10, .cls-11, .cls-9, .cls-2 {
        stroke-width: 1.74px;
      }

      .cls-3, .cls-6, .cls-8, .cls-10, .cls-11, .cls-9, .cls-2 {
        stroke: #00467e;
      }

      .cls-3, .cls-8, .cls-11, .cls-12 {
        fill: #f2e8dd;
      }

      .cls-13, .cls-9 {
        fill: #d03d19;
      }

      .cls-4 {
        stroke: #f2e8dd;
      }

      .cls-4, .cls-5, .cls-6, .cls-7, .cls-8, .cls-10, .cls-11, .cls-9 {
        stroke-linecap: round;
      }

      .cls-4, .cls-5, .cls-6, .cls-7, .cls-10 {
        fill: none;
      }

      .cls-5 {
        stroke: #d03d19;
      }

      .cls-7 {
        stroke: #006b9d;
        stroke-width: 6.95px;
      }

      .cls-14 {
        fill: #006b9d;
      }

      .cls-15 {
        fill: #00467e;
      }

      .cls-10, .cls-11 {
        stroke-linejoin: round;
      }

      .cls-16 {
        fill: #f3491e;
      }
    </style>
  </defs>
  <g id="Layer_1-2" data-name="Layer 1">
    <g>
      <g>
        <g>
          <polygon class="cls-8" points="87.04 31.64 75.18 90.71 104.18 96.39 121.32 43.87 87.04 31.64"/>
          <g>
            <polygon class="cls-14" points="139.28 49.66 73.33 35.73 80.85 8.84 142.42 33.75 139.28 49.66"/>
            <polygon class="cls-14" points="85.99 5.8 75.18 45.38 61.73 42.05 72.28 0 85.99 5.8"/>
            <line class="cls-5" x1="85.99" y1="5.8" x2="75.18" y2="45.38"/>
          </g>
          <g>
            <g>
              <path class="cls-11" d="m135.25,30.06s-5.16-1.58-9.31,1.58c-4.32,3.29-10.31,1.75-22.81-3.89-8.53-3.85-12-10.48-8.44-15.1,3.56-4.61,19.51-.26,29.27,4.35,9.76,4.61,10.72,9.36,11.29,13.05Z"/>
              <g>
                <path class="cls-10" d="m96.28,23.07s3.52-10.25,15.91-10.45"/>
                <path class="cls-10" d="m103.13,27.76s5.63-13.45,19.76-11.24"/>
                <path class="cls-10" d="m110.85,31.02s5.71-13.6,20.65-8.99"/>
              </g>
            </g>
            <path class="cls-8" d="m100.61,58.28s6.48-11.41,13.07-11.11c0,0-10.28-1.8-10.28-7.21s11.6-5.22,20.04-1.89c8.44,3.33,6.86,16.25,5.8,21.79-1.05,5.54-17.93,39.82-17.93,39.82l-22.15-4.66"/>
          </g>
        </g>
        <g>
          <path class="cls-12" d="m182.41,175.93s-85.39,60.49-132.33,55.47C3.15,226.39-4.76,132.64,71.18,61.12l60.88,18.74-16.88,63.03,48.71,1.02,18.53,32.03Z"/>
          <g>
            <path class="cls-13" d="m104.33,169.27h-30.36c-6.41,0-11.6-5.19-11.6-11.6h0c0-6.41,5.19-11.6,11.6-11.6h30.36c6.41,0,11.6,5.19,11.6,11.6h0c0,6.41-5.19,11.6-11.6,11.6Z"/>
            <path class="cls-13" d="m26.02,134.55h30.36c6.41,0,11.6-5.19,11.6-11.6s-5.19-11.6-11.6-11.6h-24.14c-4.05,7.58-7.38,15.14-10,22.56,1.19.41,2.46.64,3.78.64Z"/>
            <path class="cls-13" d="m18.41,202.73h28.76c6.41,0,11.6-5.19,11.6-11.6s-5.19-11.6-11.6-11.6h-30.36c-.8,0-1.58.08-2.34.24.28,8.44,1.63,16.18,3.94,22.97Z"/>
            <path class="cls-13" d="m168.76,171.34h-30.36c-6.41,0-11.6,5.19-11.6,11.6s5.19,11.6,11.6,11.6h14.96c11.99-7.12,21.34-13.33,25.93-16.46-1.84-3.98-5.86-6.75-10.53-6.75Z"/>
            <path class="cls-13" d="m113.6,203.61h-30.36c-6.41,0-11.6,5.19-11.6,11.6s5.19,11.6,11.6,11.6h1.18c13.14-3.94,26.88-9.86,39.78-16.29-1.8-4.07-5.87-6.91-10.61-6.91Z"/>
          </g>
          <path class="cls-6" d="m178.85,178.38s-81.83,58.04-128.77,53.03C3.15,226.39-4.76,132.64,71.18,61.12l60.88,18.74-13.11,57.26,53.51,2.3,6.39,38.96Z"/>
          <path class="cls-6" d="m89.79,142.03s20.77-13.3,42.13-14.96"/>
        </g>
      </g>
      <g>
        <g>
          <polygon class="cls-8" points="463.8 190.84 428.52 190.84 429.46 266.68 464.74 266.68 463.8 190.84"/>
          <g>
            <path class="cls-14" d="m224.58,201.91s69.3,72.95,88.59,77.05c19.29,4.11,128.56,0,128.56,0l-2.83-107.4-122.66-3.2-16.71-37.63-74.94,71.18Z"/>
            <path class="cls-13" d="m439.21,183.68l-.05-1.74h-25.27v-11.03l-1.74-.05v11.07h-35.23v-11.99l-1.74-.05v12.04h-35.23v-12.96l-1.74-.05v13.01h-35.23v-33.96h4.2l-.77-1.74h-3.43v-7.71l-1.74-3.91v11.63h-18.06l-1.83,1.74h19.89v33.96h-35.23v-19.39l-1.74,1.65v17.74h-18.68l-1.83,1.74h20.5v33.96h-24.36c.57.57,1.14,1.15,1.73,1.74h22.62v22.02c.58.54,1.16,1.09,1.74,1.63v-23.65h35.23v33.96h-23.97c.65.58,1.31,1.16,1.96,1.74h22.01v17.7c.59.41,1.17.79,1.74,1.17v-18.86h35.23v25.57c.57.01,1.15.02,1.74.03v-25.61h35.23v25.58c.58,0,1.16-.01,1.74-.02v-25.56h35.23v24.82c.58-.02,1.16-.03,1.74-.05v-24.78h27.2l-.05-1.74h-27.15v-33.96h26.26l-.05-1.74h-26.21v-33.96h25.32Zm-137.96,33.96h-35.23v-33.96h35.23v33.96Zm36.97,35.7h-35.23v-33.96h35.23v33.96Zm0-35.7h-35.23v-33.96h35.23v33.96Zm36.97,35.7h-35.23v-33.96h35.23v33.96Zm0-35.7h-35.23v-33.96h35.23v33.96Zm36.97,35.7h-35.23v-33.96h35.23v33.96Zm0-35.7h-35.23v-33.96h35.23v33.96Z"/>
            <path class="cls-6" d="m299.52,130.73l-74.94,71.18s69.3,72.95,88.59,77.05c19.29,4.11,128.56,0,128.56,0l-2.83-107.4"/>
          </g>
          <g>
            <g>
              <g>
                <path class="cls-15" d="m541.97,297.06c6.72-.17,12.31,5.13,12.48,11.85s-5.13,12.31-11.85,12.48c-6.72.17-12.31-5.13-12.48-11.85s5.13-12.31,11.85-12.48Z"/>
                <path class="cls-4" d="m542.11,302.39c3.78-.1,6.91,2.88,7.01,6.66.1,3.78-2.88,6.91-6.66,7.01s-6.91-2.88-7.01-6.66c-.1-3.78,2.88-6.91,6.66-7.01Z"/>
              </g>
              <g>
                <path class="cls-15" d="m540.94,257.23c6.72-.17,12.31,5.13,12.48,11.85s-5.13,12.31-11.85,12.48c-6.72.17-12.31-5.13-12.48-11.85-.17-6.72,5.13-12.31,11.85-12.48Z"/>
                <path class="cls-4" d="m541.07,262.56c3.78-.1,6.91,2.88,7.01,6.66.1,3.78-2.88,6.91-6.66,7.01s-6.91-2.88-7.01-6.66c-.1-3.78,2.88-6.91,6.66-7.01Z"/>
              </g>
              <g>
                <path class="cls-15" d="m539.9,217.4c6.72-.17,12.31,5.13,12.48,11.85.17,6.72-5.13,12.31-11.85,12.48-6.72.17-12.31-5.13-12.48-11.85-.17-6.72,5.13-12.31,11.85-12.48Z"/>
                <path class="cls-4" d="m540.04,222.73c3.78-.1,6.91,2.88,7.01,6.66s-2.88,6.91-6.66,7.01c-3.78.1-6.91-2.88-7.01-6.66-.1-3.78,2.88-6.91,6.66-7.01Z"/>
              </g>
              <g>
                <path class="cls-15" d="m538.87,177.58c6.72-.17,12.31,5.13,12.48,11.85.17,6.72-5.13,12.31-11.85,12.48-6.72.17-12.31-5.13-12.48-11.85-.17-6.72,5.13-12.31,11.85-12.48Z"/>
                <circle class="cls-4" cx="539.18" cy="189.74" r="6.84"/>
              </g>
            </g>
            <path class="cls-8" d="m535.98,329.39l-3.63-149.17-71.82,2.69,2.8,89.16,22.46-.54s7.82,68.4,50.2,57.86Z"/>
            <path class="cls-6" d="m490.26,218.57c5.62-.15,10.3,4.29,10.45,9.92.15,5.62-4.29,10.3-9.92,10.45-5.62.15-10.3-4.29-10.45-9.92-.15-5.62,4.29-10.3,9.92-10.45Z"/>
            <g>
              <line class="cls-6" x1="505.85" y1="284.78" x2="490.6" y2="292.94"/>
              <line class="cls-6" x1="503.76" y1="269.83" x2="487.02" y2="278.96"/>
            </g>
            <g>
              <path class="cls-10" d="m488.77,286.64s-38.27-20.63-52-9.35c-13.73,11.28-4.32,50.31,52,9.35Z"/>
              <path class="cls-10" d="m488.56,286.56s-37.5,9.53-39.71,25.19c-2.2,15.66,27.47,35.57,39.71-25.19Z"/>
            </g>
            <path class="cls-9" d="m526.53,216.51c2.29-.06,4.52-.35,6.68-.82l-.86-35.48-43.01,1.61c.87,19.73,17.37,35.2,37.19,34.69Z"/>
            <path class="cls-8" d="m525.44,330.42c3.25.21,6.76-.09,10.54-1.03l-3.63-149.17-10.8.4,3.89,149.8Z"/>
          </g>
        </g>
        <g>
          <polygon class="cls-8" points="203.04 273.14 225.8 322.57 292.78 315.02 261.27 258.05 203.04 273.14"/>
          <g>
            <path class="cls-14" d="m290.62,118.56c-44.44-20.31-51.03-9.13-51.03-9.13,0,0-88.34,54.56-94.08,83.95-5.74,29.39,35.35,106.74,35.35,106.74l103.61-22.74-32.5-54.94h0c28.4-14.62,70.03-36.67,79.94-45.23,15.39-13.3,3.14-38.34-41.29-58.65Z"/>
            <g>
              <path class="cls-13" d="m315.69,183.68v-33.96h17.47c-.39-.58-.8-1.16-1.23-1.74h-16.24v-15.23c-.57-.4-1.15-.81-1.74-1.21v16.44h-35.23v-33.96h1.31c-1.55-.62-3.07-1.21-4.51-1.74h-33.78v-4.51c-.86.42-1.41.84-1.74,1.16v3.35h-4.94c-.81.52-1.71,1.1-2.69,1.74h7.64v33.96h-35.23v-15.06c-.58.42-1.16.84-1.74,1.26v13.8h-18.07c-.72.58-1.43,1.16-2.14,1.74h20.21v33.96h-35.23v-20.87c-.59.55-1.17,1.1-1.74,1.65v19.22h-16.4c-.36.58-.7,1.16-1.02,1.74h17.42v33.96h-18.25c.14.58.29,1.15.44,1.74h17.81v33.96h-6.15c.24.58.47,1.16.71,1.74h5.44v12.66c.58,1.31,1.16,2.6,1.74,3.86v-16.52h35.23v33.96h-26.95c.3.6.59,1.18.86,1.74h26.08v2.75l1.74-.38v-2.37h10.81l7.92-1.74h-18.73v-33.96h35.23v30.33l1.74-.38v-29.95h30.55l-1.03-1.74h-29.52v-33.96h12.8c1.1-.57,2.23-1.15,3.36-1.74h-16.16v-33.96h35.23v23.97c.58-.31,1.16-.61,1.74-.92v-23.05h35.23v3.57c.59-.35,1.17-.69,1.74-1.03v-2.54h4.22c.97-.6,1.9-1.17,2.79-1.74h-7.01Zm-112.65,71.39h-35.23v-33.96h35.23v33.96Zm0-35.7h-35.23v-33.96h35.23v33.96Zm36.97,35.7h-35.23v-33.96h35.23v33.96Zm0-35.7h-35.23v-33.96h35.23v33.96Zm0-35.69h-35.23v-33.96h35.23v33.96Zm36.97,0h-35.23v-33.96h35.23v33.96Zm0-35.7h-35.23v-33.96h35.23v33.96Zm36.97,35.7h-35.23v-33.96h35.23v33.96Z"/>
              <polygon class="cls-13" points="278.72 278.64 278.72 267.66 276.98 264.72 276.98 279.02 278.72 278.64"/>
            </g>
            <g>
              <polyline class="cls-6" points="180.86 300.12 284.47 277.38 251.97 222.44"/>
              <path class="cls-6" d="m224.58,236.35s91.94-45.84,107.33-59.15c15.39-13.3,3.14-38.34-41.29-58.65s-51.03-9.13-51.03-9.13c0,0-88.34,54.56-94.08,83.95"/>
            </g>
          </g>
          <g>
            <g>
              <g>
                <circle class="cls-15" cx="185.43" cy="389.21" r="12.17"/>
                <circle class="cls-4" cx="185.43" cy="389.21" r="6.84"/>
              </g>
              <g>
                <circle class="cls-15" cx="225.27" cy="389.21" r="12.17"/>
                <circle class="cls-4" cx="225.27" cy="389.21" r="6.84"/>
              </g>
              <g>
                <circle class="cls-15" cx="265.11" cy="389.21" r="12.17"/>
                <circle class="cls-4" cx="265.11" cy="389.21" r="6.84"/>
              </g>
              <g>
                <circle class="cls-15" cx="304.95" cy="389.21" r="12.17"/>
                <path class="cls-4" d="m311.78,389.21c0,3.78-3.06,6.84-6.84,6.84s-6.84-3.06-6.84-6.84,3.06-6.84,6.84-6.84,6.84,3.06,6.84,6.84Z"/>
              </g>
            </g>
            <path class="cls-8" d="m165.43,382.37h163l-32.1-74.71-83.36,4.15,11.6,21.88s-68.58,6.04-59.15,48.67Z"/>
            <g>
              <path class="cls-6" d="m277.4,339.55c0,5.63-4.56,10.19-10.19,10.19s-10.19-4.56-10.19-10.19,4.56-10.19,10.19-10.19,10.19,4.56,10.19,10.19Z"/>
              <g>
                <line class="cls-6" x1="210.81" y1="353.42" x2="203.04" y2="337.96"/>
                <line class="cls-6" x1="225.8" y1="351.72" x2="217.11" y2="334.74"/>
              </g>
              <g>
                <path class="cls-10" d="m209.39,336.29s21.62-37.72,10.7-51.73c-10.92-14.02-50.18-5.62-10.7,51.73Z"/>
                <path class="cls-10" d="m209.48,336.09s-8.55-37.74-24.15-40.35c-15.6-2.61-36.27,26.53,24.15,40.35Z"/>
              </g>
              <path class="cls-9" d="m310.18,339.88c-17.85,2.29-31.67,17.5-31.67,35.98,0,2.23.23,4.4.62,6.52h49.31l-18.26-42.5Z"/>
              <path class="cls-8" d="m165.43,382.37h163l-4.54-10.56h-159.22c-.3,3.25-.09,6.76.76,10.56Z"/>
            </g>
          </g>
        </g>
      </g>
      <g>
        <path class="cls-12" d="m150.77,82.46s37.47-21.59,92.02-31.09c55.21-9.61,111.5-9.29,120.49,31.09l-104.27,51.8-110.33-40.83,2.08-10.97Z"/>
        <path class="cls-13" d="m166.31,93.44h29.1c6.88,0,12.45-5.57,12.45-12.45h0c0-6.88-5.57-12.45-12.45-12.45h-14.18c-13.3,5.15-22.79,9.85-27.36,12.25,0,.07-.01.14-.01.2h0c0,6.88,5.57,12.45,12.45,12.45Z"/>
        <path class="cls-6" d="m150.77,82.46s37.47-21.59,92.02-31.09c55.21-9.61,111.5-9.29,120.49,31.09"/>
      </g>
      <g>
        <g>
          <circle class="cls-3" cx="171.73" cy="34.65" r="26.22" transform="translate(-1.93 57.75) rotate(-18.98)"/>
          <path class="cls-15" d="m171.73,6.31c-11.89,0-21.92,7.92-25.13,18.77,6.84,7.48,20.3,14.5,46.67,10.66,0,0,1.98.45,4.43.3.15-1.15.26-2.31.26-3.5,0-14.48-11.74-26.22-26.22-26.22Z"/>
          <g>
            <path class="cls-6" d="m154.35,51.38s4.48-.41,5.25-5.79"/>
            <polyline class="cls-8" points="148.43 34.42 146.6 45.93 150.77 45.65"/>
            <path class="cls-15" d="m157.75,36.6c0,1.08-.87,1.95-1.95,1.95s-1.95-.87-1.95-1.95.87-1.95,1.95-1.95,1.95.87,1.95,1.95Z"/>
            <g>
              <path class="cls-12" d="m201.56,40.5c.3,3.67-2.43,6.9-6.11,7.2-1.49.12-2.9-.25-4.07-.98-1.73-1.08-2.95-2.93-3.13-5.12-.2-2.39.89-4.59,2.69-5.92.97-.71,2.13-1.18,3.42-1.28,3.67-.3,6.9,2.43,7.2,6.11Z"/>
              <path class="cls-6" d="m194.84,37.29c2.06-.17,3.87,1.37,4.04,3.43.17,2.06-1.37,3.87-3.43,4.04"/>
              <path class="cls-6" d="m190.94,35.67c.97-.71,2.13-1.18,3.42-1.28,3.67-.3,6.9,2.43,7.2,6.11.3,3.67-2.43,6.9-6.11,7.2-1.49.12-2.9-.25-4.07-.98"/>
            </g>
          </g>
        </g>
        <g>
          <line class="cls-7" x1="151.47" y1="21.26" x2="229.41" y2="38.37"/>
          <path class="cls-2" d="m171.73,6.1c-11.32,0-20.94,7.19-24.61,17.24l50.73,11.01c.05-.67.1-1.34.1-2.03,0-14.48-11.74-26.22-26.22-26.22Z"/>
        </g>
      </g>
      <g>
        <rect class="cls-1" x="160.88" y="-16.6" width="73.15" height="301.72" transform="translate(9.02 280.92) rotate(-72.11)"/>
        <rect class="cls-16" x="326.7" y="154.7" width="73.15" height="66.21" rx="20.82" ry="20.82" transform="translate(72.94 475.8) rotate(-72.11)"/>
        <g>
          <line class="cls-6" x1="49.73" y1="102.9" x2="329.99" y2="193.38"/>
          <line class="cls-6" x1="59.28" y1="73.33" x2="339.54" y2="163.81"/>
          <line class="cls-6" x1="136.13" y1="152.9" x2="265.12" y2="194.55"/>
        </g>
        <polygon class="cls-16" points="3.23 71.56 42.65 122.72 65.13 53.11 3.23 71.56"/>
        <path class="cls-12" d="m6.19,65.81h2.67c3.68,0,6.67,2.99,6.67,6.67v7.59H-.49v-7.59c0-3.68,2.99-6.67,6.67-6.67Z" transform="translate(-64.2 57.69) rotate(-72.11)"/>
        <path class="cls-13" d="m302.31,171.62h70.15c3.16,0,5.72,2.56,5.72,5.72v4.2c0,3.16-2.56,5.72-5.72,5.72h-70.15c-3.16,0-5.72-2.56-5.72-5.72v-4.2c0-3.16,2.56-5.72,5.72-5.72Z" transform="translate(62.96 445.37) rotate(-72.11)"/>
      </g>
      <g>
        <g>
          <path class="cls-11" d="m219.7,136.08s-44.36,12.07-42.29,20.49c2.17,8.85,24.17,4.11,24.17,4.11,0,0-10.15,7.14-18.01,7.54,0,0,7.7,12.18,31.76,17.75,24.05,5.57,46.69-39.14,46.69-39.14l-42.32-10.75Z"/>
          <path class="cls-6" d="m180.86,154.98s3.68-2.3,5.18-2.07c2.26.35,2.26,3.65,2.26,3.65"/>
          <path class="cls-6" d="m192.14,176.24s8.1-1.2,16.4-5.35"/>
          <path class="cls-6" d="m206.33,183.35s14.28-2.56,18.24-6.14"/>
        </g>
        <g>
          <g>
            <path class="cls-12" d="m263.16,72.94l-58.3,61.32,41.88,37.19c86.03-14.15,123.42-58.03,116.53-88.99-8.99-40.37-65.29-40.69-120.49-31.09l20.38,21.57Z"/>
            <g>
              <path class="cls-13" d="m274.73,165.37l-52.36-49.51-17.5,18.41,41.88,37.19c9.99-1.64,19.3-3.7,27.98-6.08Z"/>
              <g>
                <polygon class="cls-12" points="211.24 139.93 212.55 141.09 231.63 124.62 230.36 123.42 211.24 139.93"/>
                <polygon class="cls-12" points="241.73 134.17 240.44 132.95 219.7 147.44 221.04 148.63 241.73 134.17"/>
                <polygon class="cls-12" points="265.12 156.29 263.74 154.98 239.59 165.1 241.03 166.37 265.12 156.29"/>
                <polygon class="cls-12" points="252.59 144.44 229.85 156.45 231.24 157.68 253.92 145.7 252.59 144.44"/>
              </g>
            </g>
            <g>
              <path class="cls-13" d="m251.97,49.88c1.95,4.32,6.29,7.33,11.34,7.33h29.1c6.3,0,11.5-4.69,12.32-10.76-16.23-.88-34.4.62-52.77,3.43Z"/>
              <path class="cls-13" d="m327.27,70.01c-6.88,0-12.45,5.57-12.45,12.45h0c0,6.88,5.57,12.45,12.45,12.45h29.1c2.86,0,5.49-.98,7.6-2.6.22-3.39,0-6.69-.7-9.85-1.03-4.61-2.7-8.67-4.88-12.27-.66-.11-1.33-.18-2.02-.18h-29.1Z"/>
              <path class="cls-13" d="m326.67,126.16h-29.1c-6.88,0-12.45,5.57-12.45,12.45s5.57,12.45,12.45,12.45h15.14c10.07-5.08,18.62-10.7,25.7-16.6-1.71-4.84-6.31-8.31-11.73-8.31Z"/>
              <path class="cls-13" d="m233.89,108.82h29.1c6.88,0,12.45-5.57,12.45-12.45s-5.57-12.45-12.45-12.45h-10.26l-22.99,24.18c1.3.46,2.69.72,4.15.72Z"/>
            </g>
          </g>
          <path class="cls-6" d="m242.78,51.38c55.21-9.61,111.5-9.29,120.49,31.09,6.9,30.96-30.5,74.84-116.53,88.99l-41.88-37.19,58.3-61.32"/>
        </g>
      </g>
    </g>
  </g>
</svg>